<?xml version="1.0" encoding="UTF-8"?>
<svg id="Layer_2" data-name="Layer 2" xmlns="http://www.w3.org/2000/svg" width="880" height="80" viewBox="0 0 880 80">
  <g id="Layer_1-2" data-name="Layer 1">
    <g>
      <rect x="640" y="39" width="2" height="2" fill="#fff"/>
      <rect x="642" y="39" width="2" height="2" fill="#fff"/>
      <rect x="644" y="39" width="2" height="2" fill="#fff"/>
      <rect x="646" y="39" width="2" height="2" fill="#fff"/>
      <rect x="648" y="39" width="2" height="2" fill="#fff"/>
      <rect x="650" y="39" width="2" height="2" fill="#fff"/>
      <rect x="652" y="39" width="2" height="2" fill="#fff"/>
      <rect x="654" y="39" width="2" height="2" fill="#fff"/>
      <rect x="656" y="39" width="2" height="2" fill="#fff"/>
      <rect x="658" y="39" width="2" height="2" fill="#fff"/>
      <rect x="660" y="39" width="2" height="2" fill="#fff"/>
      <rect x="662" y="39" width="2" height="2" fill="#fff"/>
      <rect x="664" y="39" width="2" height="2" fill="#fff"/>
      <rect x="666" y="39" width="2" height="2" fill="#fff"/>
      <rect x="668" y="39" width="2" height="2" fill="#fff"/>
      <rect x="670" y="39" width="2" height="2" fill="#fff"/>
      <rect x="672" y="39" width="2" height="2" fill="#fff"/>
      <rect x="674" y="39" width="2" height="2" fill="#fff"/>
      <rect x="676" y="39" width="2" height="2" fill="#fff"/>
      <rect x="678" y="39" width="2" height="2" fill="#fff"/>
      <rect x="680" y="39" width="2" height="2" fill="#fff"/>
      <rect x="682" y="39" width="2" height="2" fill="#fff"/>
      <rect x="684" y="39" width="2" height="2" fill="#fff"/>
      <rect x="686" y="39" width="2" height="2" fill="#fff"/>
      <rect x="688" y="39" width="2" height="2" fill="#fff"/>
      <rect x="690" y="39" width="2" height="2" fill="#fff"/>
      <rect x="692" y="39" width="2" height="2" fill="#fff"/>
      <rect x="694" y="39" width="2" height="2" fill="#fff"/>
      <rect x="696" y="39" width="2" height="2" fill="#fff"/>
      <rect x="698" y="39" width="2" height="2" fill="#fff"/>
      <rect x="700" y="39" width="2" height="2" fill="#fff"/>
      <rect x="702" y="39" width="2" height="2" fill="#fff"/>
      <rect x="704" y="39" width="2" height="2" fill="#fff"/>
      <rect x="706" y="39" width="2" height="2" fill="#fff"/>
      <rect x="708" y="39" width="2" height="2" fill="#fff"/>
      <polygon points="720 40 710 50 710 30 720 40" fill="#fff"/>
    </g>
    <g>
      <rect x="240" width="160" height="80" rx="4" ry="4" fill="#0483c1"/>
      <g>
        <path d="m288.4833984375,33.89453125v12.20751953125h-1.890625v-12.20751953125h1.890625Z" fill="#fff"/>
        <path d="m290.4091796875,39.6201171875c0-1.7646484375,0-2.35888671875-.01806640625-2.77294921875h1.78271484375c.03564453125.21630859375.0537109375.68408203125.0537109375,1.0263671875.41455078125-.75634765625,1.08056640625-1.1884765625,2.052734375-1.1884765625.990234375,0,1.6025390625.4501953125,1.890625,1.29638671875.35986328125-.666015625,1.04443359375-1.29638671875,2.2685546875-1.29638671875,1.26025390625,0,2.3046875.63037109375,2.3046875,2.7548828125v6.662109375h-1.83642578125v-6.3740234375c0-.81005859375-.251953125-1.4404296875-1.09814453125-1.4404296875-.97265625,0-1.29638671875.79248046875-1.29638671875,1.962890625v5.8515625h-1.8544921875v-6.337890625c0-.9541015625-.30615234375-1.45849609375-1.08056640625-1.45849609375-.93603515625,0-1.314453125.73828125-1.314453125,2.03466796875v5.76171875h-1.8544921875v-6.48193359375Z" fill="#fff"/>
        <path d="m302.72119140625,49.46923828125v-9.93896484375c0-1.2607421875,0-2.10693359375-.01806640625-2.68310546875h1.80078125c.03564453125.1982421875.0537109375.7021484375.0537109375,1.0986328125.30615234375-.66650390625.88232421875-1.2607421875,2.125-1.2607421875,1.728515625,0,2.70068359375,1.5126953125,2.70068359375,4.6455078125,0,3.51123046875-1.1884765625,4.95166015625-2.970703125,4.95166015625-1.0087890625,0-1.548828125-.4501953125-1.81884765625-.97265625v4.15966796875h-1.87255859375Zm3.27685546875-11.181640625c-1.18798828125,0-1.47607421875,1.13427734375-1.47607421875,3.0791015625,0,2.142578125.14404296875,3.31298828125,1.4404296875,3.31298828125,1.0263671875,0,1.5302734375-1.15234375,1.5302734375-3.2587890625,0-2.2509765625-.486328125-3.13330078125-1.49462890625-3.13330078125Z" fill="#fff"/>
        <path d="m310.94677734375,46.10205078125v-12.8017578125h1.87255859375v12.8017578125h-1.87255859375Z" fill="#fff"/>
        <path d="m316.23876953125,41.9248046875c0,1.38623046875.1982421875,2.791015625,1.4765625,2.791015625,1.1884765625,0,1.3505859375-1.0625,1.38623046875-1.36865234375h1.80078125c-.0361328125.27001953125-.27001953125,2.93505859375-3.22314453125,2.93505859375-2.89892578125,0-3.31298828125-2.52099609375-3.31298828125-4.84375,0-2.9345703125,1.08056640625-4.75341796875,3.3671875-4.75341796875,2.61083984375,0,3.24072265625,2.0166015625,3.24072265625,4.3935546875,0,.27001953125-.01806640625.666015625-.0361328125.84619140625h-4.69921875Zm2.880859375-1.3681640625c0-1.134765625-.18017578125-2.32275390625-1.38623046875-2.32275390625-1.38671875,0-1.45849609375,1.65625-1.4765625,2.32275390625h2.86279296875Z" fill="#fff"/>
        <path d="m322.501953125,39.6201171875c0-1.7646484375,0-2.35888671875-.01806640625-2.77294921875h1.78271484375c.03564453125.21630859375.0537109375.68408203125.0537109375,1.0263671875.41455078125-.75634765625,1.08056640625-1.1884765625,2.052734375-1.1884765625.990234375,0,1.6025390625.4501953125,1.890625,1.29638671875.35986328125-.666015625,1.04443359375-1.29638671875,2.2685546875-1.29638671875,1.26025390625,0,2.3046875.63037109375,2.3046875,2.7548828125v6.662109375h-1.83642578125v-6.3740234375c0-.81005859375-.251953125-1.4404296875-1.09814453125-1.4404296875-.97265625,0-1.29638671875.79248046875-1.29638671875,1.962890625v5.8515625h-1.8544921875v-6.337890625c0-.9541015625-.30615234375-1.45849609375-1.08056640625-1.45849609375-.93603515625,0-1.314453125.73828125-1.314453125,2.03466796875v5.76171875h-1.8544921875v-6.48193359375Z" fill="#fff"/>
        <path d="m336.25439453125,41.9248046875c0,1.38623046875.1982421875,2.791015625,1.4765625,2.791015625,1.1884765625,0,1.3505859375-1.0625,1.38623046875-1.36865234375h1.80078125c-.0361328125.27001953125-.27001953125,2.93505859375-3.22314453125,2.93505859375-2.89892578125,0-3.31298828125-2.52099609375-3.31298828125-4.84375,0-2.9345703125,1.08056640625-4.75341796875,3.3671875-4.75341796875,2.61083984375,0,3.24072265625,2.0166015625,3.24072265625,4.3935546875,0,.27001953125-.01806640625.666015625-.0361328125.84619140625h-4.69921875Zm2.880859375-1.3681640625c0-1.134765625-.18017578125-2.32275390625-1.38623046875-2.32275390625-1.38671875,0-1.45849609375,1.65625-1.4765625,2.32275390625h2.86279296875Z" fill="#fff"/>
        <path d="m342.49951171875,39.72802734375c0-1.90869140625,0-2.41259765625-.01806640625-2.880859375h1.80078125c.03564453125.234375.0537109375.6123046875.0537109375,1.04443359375.2880859375-.576171875.88232421875-1.20654296875,2.10693359375-1.20654296875,1.4404296875,0,2.37646484375.88232421875,2.37646484375,2.80908203125v6.60791015625h-1.87255859375v-6.19384765625c0-.990234375-.251953125-1.62060546875-1.17041015625-1.62060546875-.97216796875,0-1.404296875.576171875-1.404296875,2.16064453125v5.65380859375h-1.87255859375v-6.3740234375Z" fill="#fff"/>
        <path d="m349.7529296875,36.84716796875h1.24267578125v-2.3583984375h1.8544921875v2.3583984375h1.494140625v1.54833984375h-1.494140625v5.40185546875c0,.576171875.10791015625.900390625.7919921875.900390625.21630859375,0,.396484375,0,.55859375-.0361328125v1.38623046875c-.3603515625.162109375-.900390625.18017578125-1.224609375.18017578125-1.3505859375,0-1.98046875-.50390625-1.98046875-2.1064453125v-5.72607421875h-1.24267578125v-1.54833984375Z" fill="#fff"/>
      </g>
    </g>
    <g>
      <rect x="480" width="160" height="80" rx="4" ry="4" fill="#0483c1"/>
      <g>
        <path d="m543.7490234375,41.33056640625c0-2.142578125.03564453125-4.4833984375.07177734375-5.83349609375h-.0537109375c-.4326171875,2.232421875-1.24267578125,6.6796875-2.10693359375,10.60498046875h-1.728515625c-.64794921875-3.56494140625-1.51220703125-8.318359375-1.90869140625-10.64111328125h-.07177734375c.07177734375,1.42236328125.1259765625,4.033203125.1259765625,6.12158203125v4.51953125h-1.74658203125v-12.20751953125h2.8271484375c.755859375,3.52880859375,1.4580078125,7.3642578125,1.728515625,9.0927734375h.017578125c.234375-1.548828125,1.134765625-5.7080078125,1.890625-9.0927734375h2.77294921875v12.20751953125h-1.818359375v-4.771484375Z" fill="#fff"/>
        <path d="m553.8642578125,41.384765625c0,3.3310546875-1.1884765625,4.8974609375-3.40283203125,4.8974609375-2.21484375,0-3.3671875-1.5126953125-3.3671875-4.861328125,0-3.2412109375,1.3505859375-4.73583984375,3.45703125-4.73583984375,2.16064453125,0,3.31298828125,1.6025390625,3.31298828125,4.69970703125Zm-4.87939453125.0361328125c0,2.16015625.43212890625,3.27685546875,1.5126953125,3.27685546875,1.0439453125,0,1.47607421875-1.11669921875,1.47607421875-3.25927734375,0-2.16064453125-.43212890625-3.1689453125-1.47607421875-3.1689453125-1.0263671875,0-1.5126953125.990234375-1.5126953125,3.1513671875Z" fill="#fff"/>
        <path d="m555.41015625,39.72802734375c0-1.90869140625,0-2.41259765625-.01806640625-2.880859375h1.80078125c.0361328125.234375.0537109375.6123046875.0537109375,1.04443359375.2880859375-.576171875.88232421875-1.20654296875,2.10693359375-1.20654296875,1.4404296875,0,2.37646484375.88232421875,2.37646484375,2.80908203125v6.60791015625h-1.87255859375v-6.19384765625c0-.990234375-.251953125-1.62060546875-1.17041015625-1.62060546875-.97216796875,0-1.404296875.576171875-1.404296875,2.16064453125v5.65380859375h-1.87255859375v-6.3740234375Z" fill="#fff"/>
        <path d="m563.7080078125,36.84716796875h1.87255859375v9.2548828125h-1.87255859375v-9.2548828125Zm.01806640625-1.494140625v-2.052734375h1.87255859375v2.052734375h-1.87255859375Z" fill="#fff"/>
        <path d="m566.7138671875,36.84716796875h1.24267578125v-2.3583984375h1.8544921875v2.3583984375h1.494140625v1.54833984375h-1.494140625v5.40185546875c0,.576171875.10791015625.900390625.7919921875.900390625.21630859375,0,.396484375,0,.55859375-.0361328125v1.38623046875c-.3603515625.162109375-.900390625.18017578125-1.224609375.18017578125-1.3505859375,0-1.98046875-.50390625-1.98046875-2.1064453125v-5.72607421875h-1.24267578125v-1.54833984375Z" fill="#fff"/>
        <path d="m578.81201171875,41.384765625c0,3.3310546875-1.1884765625,4.8974609375-3.40283203125,4.8974609375-2.21484375,0-3.3671875-1.5126953125-3.3671875-4.861328125,0-3.2412109375,1.3505859375-4.73583984375,3.45703125-4.73583984375,2.16064453125,0,3.31298828125,1.6025390625,3.31298828125,4.69970703125Zm-4.87939453125.0361328125c0,2.16015625.43212890625,3.27685546875,1.51220703125,3.27685546875,1.04443359375,0,1.4765625-1.11669921875,1.4765625-3.25927734375,0-2.16064453125-.43212890625-3.1689453125-1.4765625-3.1689453125-1.02587890625,0-1.51220703125.990234375-1.51220703125,3.1513671875Z" fill="#fff"/>
        <path d="m580.35791015625,39.98046875c0-1.49462890625,0-2.466796875-.01806640625-3.13330078125h1.78271484375c.01806640625.18017578125.0537109375.59423828125.0537109375,1.56640625.3603515625-1.080078125,1.20654296875-1.71044921875,2.43115234375-1.71044921875v2.07080078125c-1.53076171875,0-2.376953125.63037109375-2.376953125,2.35888671875v4.96923828125h-1.87255859375v-6.12158203125Z" fill="#fff"/>
      </g>
    </g>
    <g>
      <rect x="720" width="160" height="80" rx="4" ry="4" fill="#0483c1"/>
      <g>
        <path d="m786.6474609375,41.33056640625c0-2.142578125.03564453125-4.4833984375.07177734375-5.83349609375h-.0537109375c-.4326171875,2.232421875-1.24267578125,6.6796875-2.10693359375,10.60498046875h-1.728515625c-.64794921875-3.56494140625-1.51220703125-8.318359375-1.90869140625-10.64111328125h-.07177734375c.07177734375,1.42236328125.1259765625,4.033203125.1259765625,6.12158203125v4.51953125h-1.74658203125v-12.20751953125h2.8271484375c.755859375,3.52880859375,1.4580078125,7.3642578125,1.728515625,9.0927734375h.017578125c.234375-1.548828125,1.134765625-5.7080078125,1.890625-9.0927734375h2.77294921875v12.20751953125h-1.818359375v-4.771484375Z" fill="#fff"/>
        <path d="m796.7626953125,41.384765625c0,3.3310546875-1.1884765625,4.8974609375-3.40283203125,4.8974609375-2.21484375,0-3.3671875-1.5126953125-3.3671875-4.861328125,0-3.2412109375,1.3505859375-4.73583984375,3.45703125-4.73583984375,2.16064453125,0,3.31298828125,1.6025390625,3.31298828125,4.69970703125Zm-4.87939453125.0361328125c0,2.16015625.43212890625,3.27685546875,1.5126953125,3.27685546875,1.0439453125,0,1.47607421875-1.11669921875,1.47607421875-3.25927734375,0-2.16064453125-.43212890625-3.1689453125-1.47607421875-3.1689453125-1.0263671875,0-1.5126953125.990234375-1.5126953125,3.1513671875Z" fill="#fff"/>
        <path d="m804.5927734375,33.30029296875v10.298828125c0,1.0263671875,0,1.962890625.01806640625,2.5029296875h-1.80078125c-.01806640625-.23388671875-.0537109375-.75634765625-.0537109375-1.08056640625-.2705078125.720703125-.8466796875,1.24267578125-2.10693359375,1.24267578125-1.92626953125,0-2.71875-1.71044921875-2.71875-4.87939453125,0-2.86279296875.97216796875-4.69970703125,3.06103515625-4.69970703125,1.0625,0,1.54833984375.41455078125,1.728515625.810546875v-4.1953125h1.87255859375Zm-3.3310546875,11.361328125c1.22412109375,0,1.51220703125-.97216796875,1.51220703125-3.31298828125,0-2.32275390625-.23388671875-3.06103515625-1.404296875-3.06103515625-.9541015625,0-1.54833984375.7744140625-1.54833984375,3.13330078125,0,2.322265625.46826171875,3.24072265625,1.4404296875,3.24072265625Z" fill="#fff"/>
        <path d="m806.57080078125,36.84716796875h1.87255859375v9.2548828125h-1.87255859375v-9.2548828125Zm.01806640625-1.494140625v-2.052734375h1.87255859375v2.052734375h-1.87255859375Z" fill="#fff"/>
        <path d="m810.7109375,46.10205078125v-7.70654296875h-1.1162109375v-1.54833984375h1.1162109375v-1.0263671875c0-1.494140625.64794921875-2.62841796875,2.4306640625-2.62841796875.2880859375,0,.64794921875.03564453125.828125.08984375v1.58447265625c-.162109375-.0361328125-.341796875-.05419921875-.5400390625-.05419921875-.64794921875,0-.84619140625.37841796875-.84619140625,1.11669921875v.91796875h1.3681640625v1.54833984375h-1.3681640625v7.70654296875h-1.87255859375Z" fill="#fff"/>
        <path d="m816.70458984375,36.84716796875c.79248046875,3.27685546875,1.4765625,5.8876953125,1.58447265625,6.96826171875h.01806640625c.2158203125-1.2421875.900390625-4.10546875,1.6025390625-6.96826171875h1.890625l-2.68310546875,9.68701171875c-.77392578125,2.82666015625-1.6923828125,3.06103515625-2.98876953125,3.06103515625-.23388671875,0-.55810546875-.01806640625-.7744140625-.072265625v-1.58447265625c.12646484375.01806640625.4326171875.0361328125.6484375.0361328125.8642578125,0,1.13427734375-.486328125,1.42236328125-1.728515625l-2.7548828125-9.39892578125h2.03466796875Z" fill="#fff"/>
      </g>
    </g>
    <g>
      <rect x="160" y="39" width="2" height="2" fill="#fff"/>
      <rect x="162" y="39" width="2" height="2" fill="#fff"/>
      <rect x="164" y="39" width="2" height="2" fill="#fff"/>
      <rect x="166" y="39" width="2" height="2" fill="#fff"/>
      <rect x="168" y="39" width="2" height="2" fill="#fff"/>
      <rect x="170" y="39" width="2" height="2" fill="#fff"/>
      <rect x="172" y="39" width="2" height="2" fill="#fff"/>
      <rect x="174" y="39" width="2" height="2" fill="#fff"/>
      <rect x="176" y="39" width="2" height="2" fill="#fff"/>
      <rect x="178" y="39" width="2" height="2" fill="#fff"/>
      <rect x="180" y="39" width="2" height="2" fill="#fff"/>
      <rect x="182" y="39" width="2" height="2" fill="#fff"/>
      <rect x="184" y="39" width="2" height="2" fill="#fff"/>
      <rect x="186" y="39" width="2" height="2" fill="#fff"/>
      <rect x="188" y="39" width="2" height="2" fill="#fff"/>
      <rect x="190" y="39" width="2" height="2" fill="#fff"/>
      <rect x="192" y="39" width="2" height="2" fill="#fff"/>
      <rect x="194" y="39" width="2" height="2" fill="#fff"/>
      <rect x="196" y="39" width="2" height="2" fill="#fff"/>
      <rect x="198" y="39" width="2" height="2" fill="#fff"/>
      <rect x="200" y="39" width="2" height="2" fill="#fff"/>
      <rect x="202" y="39" width="2" height="2" fill="#fff"/>
      <rect x="204" y="39" width="2" height="2" fill="#fff"/>
      <rect x="206" y="39" width="2" height="2" fill="#fff"/>
      <rect x="208" y="39" width="2" height="2" fill="#fff"/>
      <rect x="210" y="39" width="2" height="2" fill="#fff"/>
      <rect x="212" y="39" width="2" height="2" fill="#fff"/>
      <rect x="214" y="39" width="2" height="2" fill="#fff"/>
      <rect x="216" y="39" width="2" height="2" fill="#fff"/>
      <rect x="218" y="39" width="2" height="2" fill="#fff"/>
      <rect x="220" y="39" width="2" height="2" fill="#fff"/>
      <rect x="222" y="39" width="2" height="2" fill="#fff"/>
      <rect x="224" y="39" width="2" height="2" fill="#fff"/>
      <rect x="226" y="39" width="2" height="2" fill="#fff"/>
      <rect x="228" y="39" width="2" height="2" fill="#fff"/>
      <polygon points="240 40 230 50 230 30 240 40" fill="#fff"/>
    </g>
    <g>
      <rect x="400" y="39" width="2" height="2" fill="#fff"/>
      <rect x="402" y="39" width="2" height="2" fill="#fff"/>
      <rect x="404" y="39" width="2" height="2" fill="#fff"/>
      <rect x="406" y="39" width="2" height="2" fill="#fff"/>
      <rect x="408" y="39" width="2" height="2" fill="#fff"/>
      <rect x="410" y="39" width="2" height="2" fill="#fff"/>
      <rect x="412" y="39" width="2" height="2" fill="#fff"/>
      <rect x="414" y="39" width="2" height="2" fill="#fff"/>
      <rect x="416" y="39" width="2" height="2" fill="#fff"/>
      <rect x="418" y="39" width="2" height="2" fill="#fff"/>
      <rect x="420" y="39" width="2" height="2" fill="#fff"/>
      <rect x="422" y="39" width="2" height="2" fill="#fff"/>
      <rect x="424" y="39" width="2" height="2" fill="#fff"/>
      <rect x="426" y="39" width="2" height="2" fill="#fff"/>
      <rect x="428" y="39" width="2" height="2" fill="#fff"/>
      <rect x="430" y="39" width="2" height="2" fill="#fff"/>
      <rect x="432" y="39" width="2" height="2" fill="#fff"/>
      <rect x="434" y="39" width="2" height="2" fill="#fff"/>
      <rect x="436" y="39" width="2" height="2" fill="#fff"/>
      <rect x="438" y="39" width="2" height="2" fill="#fff"/>
      <rect x="440" y="39" width="2" height="2" fill="#fff"/>
      <rect x="442" y="39" width="2" height="2" fill="#fff"/>
      <rect x="444" y="39" width="2" height="2" fill="#fff"/>
      <rect x="446" y="39" width="2" height="2" fill="#fff"/>
      <rect x="448" y="39" width="2" height="2" fill="#fff"/>
      <rect x="450" y="39" width="2" height="2" fill="#fff"/>
      <rect x="452" y="39" width="2" height="2" fill="#fff"/>
      <rect x="454" y="39" width="2" height="2" fill="#fff"/>
      <rect x="456" y="39" width="2" height="2" fill="#fff"/>
      <rect x="458" y="39" width="2" height="2" fill="#fff"/>
      <rect x="460" y="39" width="2" height="2" fill="#fff"/>
      <rect x="462" y="39" width="2" height="2" fill="#fff"/>
      <rect x="464" y="39" width="2" height="2" fill="#fff"/>
      <rect x="466" y="39" width="2" height="2" fill="#fff"/>
      <rect x="468" y="39" width="2" height="2" fill="#fff"/>
      <polygon points="480 40 470 50 470 30 480 40" fill="#fff"/>
    </g>
    <g>
      <rect width="160" height="80" rx="4" ry="4" fill="#0483c1"/>
      <g>
        <path d="m66.9775390625,33.89453125h3.4931640625c1.98046875,0,3.4208984375,1.2060546875,3.4208984375,3.56494140625,0,2.28662109375-1.314453125,3.56494140625-3.60107421875,3.56494140625h-1.42236328125v5.07763671875h-1.890625v-12.20751953125Zm1.890625,5.599609375h1.20654296875c1.29638671875,0,1.90869140625-.666015625,1.90869140625-2.07080078125,0-1.26025390625-.6484375-1.96240234375-1.78271484375-1.96240234375h-1.33251953125v4.033203125Z" fill="#fff"/>
        <path d="m75.2216796875,46.10205078125v-12.8017578125h1.87255859375v12.8017578125h-1.87255859375Z" fill="#fff"/>
        <path d="m84.81787109375,44.21142578125c0,.50439453125.0537109375,1.5126953125.07177734375,1.890625h-1.6923828125c-.0361328125-.1982421875-.08984375-.63037109375-.08984375-.91845703125-.34228515625.63037109375-.99072265625,1.08056640625-2.125,1.08056640625-1.7646484375,0-2.44873046875-1.404296875-2.44873046875-2.71875,0-1.83642578125,1.26025390625-3.02490234375,3.63720703125-3.02490234375.34228515625,0,.59423828125,0,.828125.0361328125v-1.0986328125c0-.59423828125-.10791015625-1.314453125-1.13427734375-1.314453125-1.04443359375,0-1.15234375.7021484375-1.20654296875,1.314453125h-1.76416015625c.03564453125-1.3505859375.666015625-2.77294921875,3.04296875-2.77294921875,1.908203125,0,2.880859375.900390625,2.880859375,2.64697265625v4.87939453125Zm-1.78271484375-2.28662109375c-.2158203125-.0361328125-.43212890625-.0361328125-.7744140625-.0361328125-1.35009765625,0-1.87255859375.6484375-1.87255859375,1.49462890625,0,.666015625.32421875,1.35009765625,1.1884765625,1.35009765625,1.17041015625,0,1.45849609375-.8642578125,1.45849609375-2.4306640625v-.3779296875Z" fill="#fff"/>
        <path d="m86.83154296875,39.72802734375c0-1.90869140625,0-2.41259765625-.01806640625-2.880859375h1.80078125c.0361328125.234375.0537109375.6123046875.0537109375,1.04443359375.2880859375-.576171875.88232421875-1.20654296875,2.10693359375-1.20654296875,1.4404296875,0,2.37646484375.88232421875,2.37646484375,2.80908203125v6.60791015625h-1.87255859375v-6.19384765625c0-.990234375-.251953125-1.62060546875-1.17041015625-1.62060546875-.97216796875,0-1.404296875.576171875-1.404296875,2.16064453125v5.65380859375h-1.87255859375v-6.3740234375Z" fill="#fff"/>
      </g>
    </g>
  </g>
</svg>