<?xml version="1.0" encoding="UTF-8"?>
<svg id="Layer_2" data-name="Layer 2" xmlns="http://www.w3.org/2000/svg" width="896" height="236.6982421875" viewBox="0 0 896 236.6982421875">
  <g id="diagram">
    <g>
      <rect x="90" y="111" width="2" height="2" fill="#dd8927"/>
      <rect x="92" y="111" width="2" height="2" fill="#dd8927"/>
      <rect x="94" y="111" width="2" height="2" fill="#dd8927"/>
      <rect x="96" y="111" width="2" height="2" fill="#dd8927"/>
      <rect x="98" y="111" width="2" height="2" fill="#dd8927"/>
      <rect x="100" y="111" width="2" height="2" fill="#dd8927"/>
      <rect x="102" y="111" width="2" height="2" fill="#dd8927"/>
      <rect x="104" y="111" width="2" height="2" fill="#dd8927"/>
      <rect x="106" y="111" width="2" height="2" fill="#dd8927"/>
      <rect x="108" y="111" width="2" height="2" fill="#dd8927"/>
      <rect x="110" y="111" width="2" height="2" fill="#dd8927"/>
      <rect x="112" y="111" width="2" height="2" fill="#dd8927"/>
      <rect x="114" y="111" width="2" height="2" fill="#dd8927"/>
      <rect x="116" y="111" width="2" height="2" fill="#dd8927"/>
      <rect x="118" y="111" width="2" height="2" fill="#dd8927"/>
      <rect x="120" y="111" width="2" height="2" fill="#dd8927"/>
      <rect x="122" y="111" width="2" height="2" fill="#dd8927"/>
      <rect x="124" y="111" width="2" height="2" fill="#dd8927"/>
      <rect x="126" y="111" width="2" height="2" fill="#dd8927"/>
      <rect x="128" y="111" width="2" height="2" fill="#dd8927"/>
      <rect x="130" y="111" width="2" height="2" fill="#dd8927"/>
      <rect x="132" y="111" width="2" height="2" fill="#dd8927"/>
      <rect x="134" y="111" width="2" height="2" fill="#dd8927"/>
      <rect x="136" y="111" width="2" height="2" fill="#dd8927"/>
      <rect x="138" y="111" width="2" height="2" fill="#dd8927"/>
      <rect x="140" y="111" width="2" height="2" fill="#dd8927"/>
      <rect x="142" y="111" width="2" height="2" fill="#dd8927"/>
      <rect x="144" y="111" width="2" height="2" fill="#dd8927"/>
      <rect x="146" y="111" width="2" height="2" fill="#dd8927"/>
      <rect x="148" y="111" width="2" height="2" fill="#dd8927"/>
      <rect x="150" y="111" width="2" height="2" fill="#dd8927"/>
      <rect x="152" y="111" width="2" height="2" fill="#dd8927"/>
      <rect x="154" y="111" width="2" height="2" fill="#dd8927"/>
      <rect x="156" y="111" width="2" height="2" fill="#dd8927"/>
      <rect x="158" y="111" width="2" height="2" fill="#dd8927"/>
      <rect x="160" y="111" width="2" height="2" fill="#dd8927"/>
      <rect x="162" y="111" width="2" height="2" fill="#dd8927"/>
      <rect x="164" y="111" width="2" height="2" fill="#dd8927"/>
      <rect x="166" y="111" width="2" height="2" fill="#dd8927"/>
      <rect x="168" y="111" width="2" height="2" fill="#dd8927"/>
      <rect x="170" y="111" width="2" height="2" fill="#dd8927"/>
      <rect x="172" y="111" width="2" height="2" fill="#dd8927"/>
      <rect x="174" y="111" width="2" height="2" fill="#dd8927"/>
      <rect x="176" y="111" width="2" height="2" fill="#dd8927"/>
      <rect x="178" y="111" width="2" height="2" fill="#dd8927"/>
      <rect x="180" y="111" width="2" height="2" fill="#dd8927"/>
      <rect x="182" y="111" width="2" height="2" fill="#dd8927"/>
      <rect x="184" y="111" width="2" height="2" fill="#dd8927"/>
      <rect x="186" y="111" width="2" height="2" fill="#dd8927"/>
      <rect x="188" y="111" width="2" height="2" fill="#dd8927"/>
      <rect x="190" y="111" width="2" height="2" fill="#dd8927"/>
      <rect x="192" y="111" width="2" height="2" fill="#dd8927"/>
      <rect x="194" y="111" width="2" height="2" fill="#dd8927"/>
      <rect x="196" y="111" width="2" height="2" fill="#dd8927"/>
      <rect x="198" y="111" width="2" height="2" fill="#dd8927"/>
      <rect x="200" y="111" width="2" height="2" fill="#dd8927"/>
      <rect x="202" y="111" width="2" height="2" fill="#dd8927"/>
      <rect x="204" y="111" width="2" height="2" fill="#dd8927"/>
      <rect x="206" y="111" width="2" height="2" fill="#dd8927"/>
      <rect x="208" y="111" width="2" height="2" fill="#dd8927"/>
      <rect x="210" y="111" width="2" height="2" fill="#dd8927"/>
      <rect x="212" y="111" width="2" height="2" fill="#dd8927"/>
      <polygon points="224 112 214 122 214 102 224 112" fill="#dd8927"/>
    </g>
    <g>
      <rect x="387.99853515625" y="111" width="2" height="2" fill="#dd8927"/>
      <rect x="389.99853515625" y="111" width="2" height="2" fill="#dd8927"/>
      <rect x="391.99853515625" y="111" width="2" height="2" fill="#dd8927"/>
      <rect x="393.99853515625" y="111" width="2" height="2" fill="#dd8927"/>
      <rect x="395.99853515625" y="111" width="2" height="2" fill="#dd8927"/>
      <rect x="397.99853515625" y="111" width="2" height="2" fill="#dd8927"/>
      <rect x="399.99853515625" y="111" width="2" height="2" fill="#dd8927"/>
      <rect x="401.99853515625" y="111" width="2" height="2" fill="#dd8927"/>
      <rect x="403.99853515625" y="111" width="2" height="2" fill="#dd8927"/>
      <rect x="405.99853515625" y="111" width="2" height="2" fill="#dd8927"/>
      <rect x="407.99853515625" y="111" width="2" height="2" fill="#dd8927"/>
      <rect x="409.99853515625" y="111" width="2" height="2" fill="#dd8927"/>
      <rect x="411.99853515625" y="111" width="2" height="2" fill="#dd8927"/>
      <rect x="413.99853515625" y="111" width="2" height="2" fill="#dd8927"/>
      <rect x="415.99853515625" y="111" width="2" height="2" fill="#dd8927"/>
      <rect x="417.99853515625" y="111" width="2" height="2" fill="#dd8927"/>
      <rect x="419.99853515625" y="111" width="2" height="2" fill="#dd8927"/>
      <rect x="421.99853515625" y="111" width="2" height="2" fill="#dd8927"/>
      <rect x="423.99853515625" y="111" width="2" height="2" fill="#dd8927"/>
      <rect x="425.99853515625" y="111" width="2" height="2" fill="#dd8927"/>
      <rect x="427.99853515625" y="111" width="2" height="2" fill="#dd8927"/>
      <rect x="429.99853515625" y="111" width="2" height="2" fill="#dd8927"/>
      <rect x="431.99853515625" y="111" width="2" height="2" fill="#dd8927"/>
      <rect x="433.99853515625" y="111" width="2" height="2" fill="#dd8927"/>
      <rect x="435.99853515625" y="111" width="2" height="2" fill="#dd8927"/>
      <rect x="437.99853515625" y="111" width="2" height="2" fill="#dd8927"/>
      <rect x="439.99853515625" y="111" width="2" height="2" fill="#dd8927"/>
      <rect x="441.99853515625" y="111" width="2" height="2" fill="#dd8927"/>
      <rect x="443.99853515625" y="111" width="2" height="2" fill="#dd8927"/>
      <rect x="445.99853515625" y="111" width="2" height="2" fill="#dd8927"/>
      <rect x="447.99853515625" y="111" width="2" height="2" fill="#dd8927"/>
      <rect x="449.99853515625" y="111" width="2" height="2" fill="#dd8927"/>
      <rect x="451.99853515625" y="111" width="2" height="2" fill="#dd8927"/>
      <rect x="453.99853515625" y="111" width="2" height="2" fill="#dd8927"/>
      <rect x="455.99853515625" y="111" width="2" height="2" fill="#dd8927"/>
      <rect x="457.99853515625" y="111" width="2" height="2" fill="#dd8927"/>
      <rect x="459.99853515625" y="111" width="2" height="2" fill="#dd8927"/>
      <rect x="461.99853515625" y="111" width="2" height="2" fill="#dd8927"/>
      <rect x="463.99853515625" y="111" width="2" height="2" fill="#dd8927"/>
      <rect x="465.99853515625" y="111" width="2" height="2" fill="#dd8927"/>
      <rect x="467.99853515625" y="111" width="2" height="2" fill="#dd8927"/>
      <rect x="469.99853515625" y="111" width="2" height="2" fill="#dd8927"/>
      <rect x="471.99853515625" y="111" width="2" height="2" fill="#dd8927"/>
      <rect x="473.99853515625" y="111" width="2" height="2" fill="#dd8927"/>
      <rect x="475.99853515625" y="111" width="2" height="2" fill="#dd8927"/>
      <rect x="477.99853515625" y="111" width="2" height="2" fill="#dd8927"/>
      <rect x="479.99853515625" y="111" width="2" height="2" fill="#dd8927"/>
      <rect x="481.99853515625" y="111" width="2" height="2" fill="#dd8927"/>
      <rect x="483.99853515625" y="111" width="2" height="2" fill="#dd8927"/>
      <rect x="485.99853515625" y="111" width="2" height="2" fill="#dd8927"/>
      <rect x="487.99853515625" y="111" width="2" height="2" fill="#dd8927"/>
      <rect x="489.99853515625" y="111" width="2" height="2" fill="#dd8927"/>
      <rect x="491.99853515625" y="111" width="2" height="2" fill="#dd8927"/>
      <rect x="493.99853515625" y="111" width="2" height="2" fill="#dd8927"/>
      <rect x="495.99853515625" y="111" width="2" height="2" fill="#dd8927"/>
      <rect x="497.99853515625" y="111" width="2" height="2" fill="#dd8927"/>
      <rect x="499.99853515625" y="111" width="2" height="2" fill="#dd8927"/>
      <rect x="501.99853515625" y="111" width="2" height="2" fill="#dd8927"/>
      <rect x="503.99853515625" y="111" width="2" height="2" fill="#dd8927"/>
      <rect x="505.99853515625" y="111" width="2" height="2" fill="#dd8927"/>
      <rect x="507.99853515625" y="111" width="2" height="2" fill="#dd8927"/>
      <rect x="509.99853515625" y="111" width="2" height="2" fill="#dd8927"/>
      <polygon points="521.99853515625 112 511.99853515625 122 511.99853515625 102 521.99853515625 112" fill="#dd8927"/>
    </g>
    <g>
      <rect x="596" y="111" width="2" height="2" fill="#dd8927"/>
      <rect x="598" y="111" width="2" height="2" fill="#dd8927"/>
      <rect x="600" y="111" width="2" height="2" fill="#dd8927"/>
      <rect x="602" y="111" width="2" height="2" fill="#dd8927"/>
      <rect x="604" y="111" width="2" height="2" fill="#dd8927"/>
      <rect x="606" y="111" width="2" height="2" fill="#dd8927"/>
      <rect x="608" y="111" width="2" height="2" fill="#dd8927"/>
      <rect x="610" y="111" width="2" height="2" fill="#dd8927"/>
      <rect x="612" y="111" width="2" height="2" fill="#dd8927"/>
      <rect x="614" y="111" width="2" height="2" fill="#dd8927"/>
      <rect x="616" y="111" width="2" height="2" fill="#dd8927"/>
      <rect x="618" y="111" width="2" height="2" fill="#dd8927"/>
      <rect x="620" y="111" width="2" height="2" fill="#dd8927"/>
      <rect x="622" y="111" width="2" height="2" fill="#dd8927"/>
      <rect x="624" y="111" width="2" height="2" fill="#dd8927"/>
      <rect x="626" y="111" width="2" height="2" fill="#dd8927"/>
      <rect x="628" y="111" width="2" height="2" fill="#dd8927"/>
      <rect x="630" y="111" width="2" height="2" fill="#dd8927"/>
      <rect x="632" y="111" width="2" height="2" fill="#dd8927"/>
      <rect x="634" y="111" width="2" height="2" fill="#dd8927"/>
      <rect x="636" y="111" width="2" height="2" fill="#dd8927"/>
      <rect x="638" y="111" width="2" height="2" fill="#dd8927"/>
      <rect x="640" y="111" width="2" height="2" fill="#dd8927"/>
      <rect x="642" y="111" width="2" height="2" fill="#dd8927"/>
      <rect x="644" y="111" width="2" height="2" fill="#dd8927"/>
      <rect x="646" y="111" width="2" height="2" fill="#dd8927"/>
      <rect x="648" y="111" width="2" height="2" fill="#dd8927"/>
      <rect x="650" y="111" width="2" height="2" fill="#dd8927"/>
      <rect x="652" y="111" width="2" height="2" fill="#dd8927"/>
      <rect x="654" y="111" width="2" height="2" fill="#dd8927"/>
      <rect x="656" y="111" width="2" height="2" fill="#dd8927"/>
      <rect x="658" y="111" width="2" height="2" fill="#dd8927"/>
      <rect x="660" y="111" width="2" height="2" fill="#dd8927"/>
      <rect x="662" y="111" width="2" height="2" fill="#dd8927"/>
      <rect x="664" y="111" width="2" height="2" fill="#dd8927"/>
      <rect x="666" y="111" width="2" height="2" fill="#dd8927"/>
      <rect x="668" y="111" width="2" height="2" fill="#dd8927"/>
      <rect x="670" y="111" width="2" height="2" fill="#dd8927"/>
      <rect x="672" y="111" width="2" height="2" fill="#dd8927"/>
      <rect x="674" y="111" width="2" height="2" fill="#dd8927"/>
      <rect x="676" y="111" width="2" height="2" fill="#dd8927"/>
      <rect x="678" y="111" width="2" height="2" fill="#dd8927"/>
      <rect x="680" y="111" width="2" height="2" fill="#dd8927"/>
      <rect x="682" y="111" width="2" height="2" fill="#dd8927"/>
      <rect x="684" y="111" width="2" height="2" fill="#dd8927"/>
      <rect x="686" y="111" width="2" height="2" fill="#dd8927"/>
      <rect x="688" y="111" width="2" height="2" fill="#dd8927"/>
      <rect x="690" y="111" width="2" height="2" fill="#dd8927"/>
      <rect x="692" y="111" width="2" height="2" fill="#dd8927"/>
      <rect x="694" y="111" width="2" height="2" fill="#dd8927"/>
      <rect x="696" y="111" width="2" height="2" fill="#dd8927"/>
      <rect x="698" y="111" width="2" height="2" fill="#dd8927"/>
      <rect x="700" y="111" width="2" height="2" fill="#dd8927"/>
      <rect x="702" y="111" width="2" height="2" fill="#dd8927"/>
      <rect x="704" y="111" width="2" height="2" fill="#dd8927"/>
      <rect x="706" y="111" width="2" height="2" fill="#dd8927"/>
      <rect x="708" y="111" width="2" height="2" fill="#dd8927"/>
      <rect x="710" y="111" width="2" height="2" fill="#dd8927"/>
      <rect x="712" y="111" width="2" height="2" fill="#dd8927"/>
      <rect x="714" y="111" width="2" height="2" fill="#dd8927"/>
      <rect x="716" y="111" width="2" height="2" fill="#dd8927"/>
      <rect x="718" y="111" width="2" height="2" fill="#dd8927"/>
      <rect x="720" y="111" width="2" height="2" fill="#dd8927"/>
      <rect x="722" y="111" width="2" height="2" fill="#dd8927"/>
      <rect x="724" y="111" width="2" height="2" fill="#dd8927"/>
      <rect x="726" y="111" width="2" height="2" fill="#dd8927"/>
      <rect x="728" y="111" width="2" height="2" fill="#dd8927"/>
      <rect x="730" y="111" width="2" height="2" fill="#dd8927"/>
      <rect x="732" y="111" width="2" height="2" fill="#dd8927"/>
      <rect x="734" y="111" width="2" height="2" fill="#dd8927"/>
      <rect x="736" y="111" width="2" height="2" fill="#dd8927"/>
      <rect x="738" y="111" width="2" height="2" fill="#dd8927"/>
      <rect x="740" y="111" width="2" height="2" fill="#dd8927"/>
      <rect x="742" y="111" width="2" height="2" fill="#dd8927"/>
      <rect x="744" y="111" width="2" height="2" fill="#dd8927"/>
      <rect x="746" y="111" width="2" height="2" fill="#dd8927"/>
      <rect x="748" y="111" width="2" height="2" fill="#dd8927"/>
      <polygon points="760 112 750 122 750 102 760 112" fill="#dd8927"/>
    </g>
    <g>
      <rect x="780" y="131" width="2" height="2" fill="#dd8927"/>
      <rect x="778" y="131" width="2" height="2" fill="#dd8927"/>
      <rect x="776" y="131" width="2" height="2" fill="#dd8927"/>
      <rect x="774" y="131" width="2" height="2" fill="#dd8927"/>
      <rect x="772" y="131" width="2" height="2" fill="#dd8927"/>
      <rect x="770" y="131" width="2" height="2" fill="#dd8927"/>
      <rect x="768" y="131" width="2" height="2" fill="#dd8927"/>
      <rect x="766" y="131" width="2" height="2" fill="#dd8927"/>
      <rect x="764" y="131" width="2" height="2" fill="#dd8927"/>
      <rect x="762" y="131" width="2" height="2" fill="#dd8927"/>
      <rect x="760" y="131" width="2" height="2" fill="#dd8927"/>
      <rect x="758" y="131" width="2" height="2" fill="#dd8927"/>
      <rect x="756" y="131" width="2" height="2" fill="#dd8927"/>
      <rect x="754" y="131" width="2" height="2" fill="#dd8927"/>
      <rect x="752" y="131" width="2" height="2" fill="#dd8927"/>
      <rect x="750" y="131" width="2" height="2" fill="#dd8927"/>
      <rect x="748" y="131" width="2" height="2" fill="#dd8927"/>
      <rect x="746" y="131" width="2" height="2" fill="#dd8927"/>
      <rect x="744" y="131" width="2" height="2" fill="#dd8927"/>
      <rect x="742" y="131" width="2" height="2" fill="#dd8927"/>
      <rect x="740" y="131" width="2" height="2" fill="#dd8927"/>
      <rect x="738" y="131" width="2" height="2" fill="#dd8927"/>
      <rect x="736" y="131" width="2" height="2" fill="#dd8927"/>
      <rect x="734" y="131" width="2" height="2" fill="#dd8927"/>
      <rect x="732" y="131" width="2" height="2" fill="#dd8927"/>
      <rect x="730" y="131" width="2" height="2" fill="#dd8927"/>
      <rect x="728" y="131" width="2" height="2" fill="#dd8927"/>
      <rect x="726" y="131" width="2" height="2" fill="#dd8927"/>
      <rect x="724" y="131" width="2" height="2" fill="#dd8927"/>
      <rect x="722" y="131" width="2" height="2" fill="#dd8927"/>
      <rect x="720" y="131" width="2" height="2" fill="#dd8927"/>
      <rect x="718" y="131" width="2" height="2" fill="#dd8927"/>
      <rect x="716" y="131" width="2" height="2" fill="#dd8927"/>
      <rect x="714" y="131" width="2" height="2" fill="#dd8927"/>
      <rect x="712" y="131" width="2" height="2" fill="#dd8927"/>
      <rect x="710" y="131" width="2" height="2" fill="#dd8927"/>
      <rect x="708" y="131" width="2" height="2" fill="#dd8927"/>
      <rect x="706" y="131" width="2" height="2" fill="#dd8927"/>
      <rect x="704" y="131" width="2" height="2" fill="#dd8927"/>
      <rect x="702" y="131" width="2" height="2" fill="#dd8927"/>
      <rect x="700" y="131" width="2" height="2" fill="#dd8927"/>
      <rect x="698" y="131" width="2" height="2" fill="#dd8927"/>
      <rect x="696" y="131" width="2" height="2" fill="#dd8927"/>
      <rect x="694" y="131" width="2" height="2" fill="#dd8927"/>
      <rect x="692" y="131" width="2" height="2" fill="#dd8927"/>
      <rect x="690" y="131" width="2" height="2" fill="#dd8927"/>
      <rect x="688" y="131" width="2" height="2" fill="#dd8927"/>
      <rect x="686" y="131" width="2" height="2" fill="#dd8927"/>
      <rect x="684" y="131" width="2" height="2" fill="#dd8927"/>
      <rect x="682" y="131" width="2" height="2" fill="#dd8927"/>
      <rect x="680" y="131" width="2" height="2" fill="#dd8927"/>
      <rect x="678" y="131" width="2" height="2" fill="#dd8927"/>
      <rect x="676" y="131" width="2" height="2" fill="#dd8927"/>
      <rect x="674" y="131" width="2" height="2" fill="#dd8927"/>
      <rect x="672" y="131" width="2" height="2" fill="#dd8927"/>
      <rect x="670" y="131" width="2" height="2" fill="#dd8927"/>
      <rect x="668" y="131" width="2" height="2" fill="#dd8927"/>
      <rect x="666" y="131" width="2" height="2" fill="#dd8927"/>
      <rect x="664" y="131" width="2" height="2" fill="#dd8927"/>
      <rect x="662" y="131" width="2" height="2" fill="#dd8927"/>
      <rect x="660" y="131" width="2" height="2" fill="#dd8927"/>
      <rect x="658" y="131" width="2" height="2" fill="#dd8927"/>
      <rect x="656" y="131" width="2" height="2" fill="#dd8927"/>
      <rect x="654" y="131" width="2" height="2" fill="#dd8927"/>
      <rect x="652" y="131" width="2" height="2" fill="#dd8927"/>
      <rect x="650" y="131" width="2" height="2" fill="#dd8927"/>
      <rect x="648" y="131" width="2" height="2" fill="#dd8927"/>
      <rect x="646" y="131" width="2" height="2" fill="#dd8927"/>
      <rect x="644" y="131" width="2" height="2" fill="#dd8927"/>
      <rect x="642" y="131" width="2" height="2" fill="#dd8927"/>
      <rect x="640" y="131" width="2" height="2" fill="#dd8927"/>
      <rect x="638" y="131" width="2" height="2" fill="#dd8927"/>
      <rect x="636" y="131" width="2" height="2" fill="#dd8927"/>
      <rect x="634" y="131" width="2" height="2" fill="#dd8927"/>
      <rect x="632" y="131" width="2" height="2" fill="#dd8927"/>
      <rect x="630" y="131" width="2" height="2" fill="#dd8927"/>
      <rect x="628" y="131" width="2" height="2" fill="#dd8927"/>
      <polygon points="618 132 628 122 628 142 618 132" fill="#dd8927"/>
    </g>
    <g>
      <path d="m258,160c-13.254833995200897,0-24-21.490332009598205-24-48s10.745166004799103-48,24-48h144c13.254833995197259,0,24,21.490332009598205,24,48s-10.745166004802741,48-24,48h-144Z" fill="#0083c1"/>
      <path d="m234,112c0-26.509667990401795,10.745166004802741-48,24-48h144c13.254833995200897,0,24,21.490332009598205,24,48" fill="#7b868c"/>
      <ellipse cx="258" cy="112" rx="24" ry="48" fill="#c1c5c8"/>
      <ellipse cx="258" cy="112" rx="18" ry="40" fill="#111921"/>
      <path d="m276,112c0,22.091389991997858-8.058874503603874,40-18,40-9.941125496403401,0-18-17.908610008002142-18-40" fill="#003a5d"/>
    </g>
    <g>
      <rect x="22" y="62" width="136" height="88" rx="1" ry="1" fill="#c1c5c8"/>
      <rect x="26" y="66" width="128" height="72" fill="#0083c1"/>
      <rect x="60" y="157.999999997273846" width="60" height="1.999999999993065" rx=".999998997376565" ry=".999998997376565" fill="#7b868c"/>
      <rect x="74" y="150" width="32" height="8" fill="#7b868c"/>
      <g>
        <g>
          <path d="m90,90c-3.313720703125,0-6,2.686279296875-6,6v15h12v-15c0-3.313720703125-2.686279296875-6-6-6Zm4,16h-8v-10c0-2.20916748046875,1.79083251953125-4,4-4s4,1.79083251953125,4,4v10Z" fill="#003a5d"/>
          <rect x="81" y="100" width="18" height="14" fill="#003a5d"/>
        </g>
        <path d="m92,105c0-1.1046142578125-.89544677734375-2-2-2s-2,.8953857421875-2,2c0,.76318359375.432373046875,1.4185791015625,1.06103515625,1.7557373046875l-1.06103515625,4.2442626953125h4l-1.06103515625-4.2442626953125c.628662109375-.337158203125,1.06103515625-.9925537109375,1.06103515625-1.7557373046875Z" fill="#fff"/>
      </g>
    </g>
    <g>
      <g>
        <rect x=".000000000000014" y="107.999992000004568" width="31.999999999999972" height="56" rx="4" ry="4" fill="#111921"/>
        <circle cx="16" cy="159.999992000004568" r="2" fill="#003a5d"/>
        <path d="m30,155.999992000004568H2v-44c0-1.104569499664649.895430500342627-2,2-2h3.171572875253332c.530432979678153,0,1.039140805478382.210713680731715,1.414213562373334.585786437623028l.828427124746668.828427124746668c.375072756894951.375072756898589.883780582695181.585786437630304,1.414213562373334.585786437630304h10.343145750506665c.530432979678153,0,1.039140805478382-.210713680731715,1.414213562373334-.585786437630304l.828427124746668-.828427124746668c.375072756894951-.375072756891313.883780582695181-.585786437623028,1.414213562373334-.585786437623028h3.171572875253332c1.104569499664649,0,2,.895430500335351,2,2v44Z" fill="#0083c1"/>
      </g>
      <g>
        <g>
          <path d="m10,140.999991999997292v-15c0-3.31370849879022,2.686291501202504-5.999999999992724,6-5.999999999992724s6,2.686291501202504,6,5.999999999992724v15" fill="#003a5d"/>
          <path d="m12,135.999991999997292v-10c0-2.209138999191055,1.790861000801669-3.999999999992724,4-3.999999999992724s4,1.790861000801669,4,3.999999999992724v10" fill="#0083c1"/>
          <rect x="7" y="129.999992000004568" width="18" height="14" fill="#003a5d"/>
        </g>
        <path d="m18,135c0-1.1046142578125-.89544677734375-2-2-2s-2,.8953857421875-2,2c0,.76318359375.432373046875,1.4185791015625,1.06103515625,1.7557373046875l-1.06103515625,4.2442626953125h4l-1.06103515625-4.2442626953125c.628662109375-.337158203125,1.06103515625-.9925537109375,1.06103515625-1.7557373046875Z" fill="#fff"/>
      </g>
    </g>
    <g>
      <path d="m630,42h-8.189208984375c-2.022216796875-22.4246826171875-20.859619140625-40-43.810791015625-40-17.0960693359375,0-31.90380859375,9.75689697265625-39.187744140625,24h-4.812255859375c-13.2548828125,0-24,10.74517822265625-24,24h-4c-11.04571533203125,0-20,8.95428466796875-20,20,0,11.045654296875,8.95428466796875,20,20,20h124c13.2548828125,0,24-10.74517822265625,24-24s-10.7451171875-24-24-24Z" fill="none" stroke="#c1c5c8" stroke-miterlimit="10" stroke-width="2"/>
      <g>
        <rect x="532" y="40" width="76" height="144" transform="translate(1140 223.999999999999943) rotate(180)" fill="#c1c5c8"/>
        <g>
          <rect x="540" y="52" width="60" height="20" transform="translate(1140 123.999999999999929) rotate(180)" fill="#fff"/>
          <g>
            <circle cx="590" cy="62" r="3" fill="#fff"/>
            <path d="m590,60c1.102783203125,0,2,.897186279296875,2,2s-.897216796875,2-2,2-2-.897186279296875-2-2,.897216796875-2,2-2m0-2c-2.2091064453125,0-4,1.790863037109375-4,4s1.7908935546875,4,4,4,4-1.790863037109375,4-4-1.7908935546875-4-4-4h0Z" fill="#0c3b5d"/>
          </g>
          <rect x="546" y="58" width="2" height="8" fill="#0083c1"/>
          <rect x="552" y="58" width="2" height="8" fill="#0083c1"/>
          <rect x="558" y="58" width="2" height="8" fill="#0083c1"/>
          <rect x="564" y="58" width="2" height="8" fill="#0083c1"/>
          <circle cx="580" cy="62" r="2" fill="#dd8927"/>
          <circle cx="572" cy="62" r="2" fill="#dd8927"/>
        </g>
        <g>
          <rect x="540" y="76" width="60" height="20" transform="translate(1140 171.999999999999943) rotate(180)" fill="#fff"/>
          <g>
            <circle cx="590" cy="86" r="3" fill="#fff"/>
            <path d="m590,84c1.102783203125,0,2,.897216796875,2,2s-.897216796875,2-2,2-2-.897216796875-2-2,.897216796875-2,2-2m0-2c-2.2091064453125,0-4,1.790863037109375-4,4,0,2.20916748046875,1.7908935546875,4,4,4s4-1.79083251953125,4-4c0-2.209136962890625-1.7908935546875-4-4-4h0Z" fill="#0c3b5d"/>
          </g>
          <rect x="546" y="82" width="2" height="8" fill="#0083c1"/>
          <rect x="552" y="82" width="2" height="8" fill="#0083c1"/>
          <rect x="558" y="82" width="2" height="8" fill="#0083c1"/>
          <rect x="564" y="82" width="2" height="8" fill="#0083c1"/>
          <circle cx="580" cy="86" r="2" fill="#dd8927"/>
          <circle cx="572" cy="86" r="2" fill="#dd8927"/>
        </g>
        <g>
          <rect x="540" y="100" width="60" height="20" transform="translate(1140 219.999999999999943) rotate(180)" fill="#fff"/>
          <g>
            <circle cx="590" cy="110" r="3" fill="#fff"/>
            <path d="m590,108c1.102783203125,0,2,.897216796875,2,2s-.897216796875,2-2,2-2-.897216796875-2-2,.897216796875-2,2-2m0-2c-2.2091064453125,0-4,1.79083251953125-4,4s1.7908935546875,4,4,4,4-1.79083251953125,4-4-1.7908935546875-4-4-4h0Z" fill="#0c3b5d"/>
          </g>
          <rect x="546" y="106" width="2" height="8" fill="#0083c1"/>
          <rect x="552" y="106" width="2" height="8" fill="#0083c1"/>
          <rect x="558" y="106" width="2" height="8" fill="#0083c1"/>
          <rect x="564" y="106" width="2" height="8" fill="#0083c1"/>
          <circle cx="580" cy="110" r="2" fill="#dd8927"/>
          <circle cx="572" cy="110" r="2" fill="#dd8927"/>
        </g>
      </g>
    </g>
    <g>
      <path d="m870,42h-8.189208984375c-2.022216796875-22.4246826171875-20.859619140625-40-43.810791015625-40-17.0960693359375,0-31.90380859375,9.75689697265625-39.187744140625,24h-4.812255859375c-13.2548828125,0-24,10.74517822265625-24,24h-4c-11.045654296875,0-20,8.95428466796875-20,20,0,11.045654296875,8.954345703125,20,20,20h124c13.2548828125,0,24-10.74517822265625,24-24s-10.7451171875-24-24-24Z" fill="none" stroke="#c1c5c8" stroke-miterlimit="10" stroke-width="2"/>
      <g>
        <path d="m850,126c0-11.045654296875-17.90869140625-20-40-20-22.0914306640625,0-40,8.954345703125-40,20v20c0,11.0457763671875,17.9085693359375,20,40,20,22.09130859375,0,40-8.9542236328125,40-20v-20Z" fill="#0083c1"/>
        <ellipse cx="810" cy="126.000000000001819" rx="40" ry="19.999999999998181" fill="#0c3b5d"/>
        <path d="m850,102c0-11.045654296875-17.90869140625-20-40-20-22.0914306640625,0-40,8.954345703125-40,20v20c0,11.0457763671875,17.9085693359375,20,40,20,22.09130859375,0,40-8.9542236328125,40-20v-20Z" fill="#0083c1"/>
        <ellipse cx="810" cy="102.000000000001819" rx="40" ry="19.999999999998181" fill="#0c3b5d"/>
        <path d="m850,78c0-11.045654296875-17.90869140625-20-40-20-22.0914306640625,0-40,8.954345703125-40,20v20c0,11.0457763671875,17.9085693359375,20,40,20,22.09130859375,0,40-8.9542236328125,40-20v-20Z" fill="#0083c1"/>
        <ellipse cx="810" cy="78.000000000001819" rx="40" ry="19.999999999998181" fill="#c1c5c8"/>
      </g>
    </g>
    <g>
      <path d="m755.435546875,212l-3.025390625-12.2080078125h2.03515625l1.1884765625,5.40234375c.3779296875,1.6376953125.755859375,3.564453125.900390625,4.806640625h.03515625c.162109375-1.1875.6484375-3.150390625,1.0263671875-4.7890625l1.1708984375-5.419921875h1.98046875l-3.0966796875,12.2080078125h-2.21484375Z" fill="#fff"/>
      <path d="m767.4609375,207.2822265625c0,3.3310546875-1.1884765625,4.8974609375-3.4033203125,4.8974609375-2.2138671875,0-3.3662109375-1.51171875-3.3662109375-4.861328125,0-3.240234375,1.349609375-4.7353515625,3.45703125-4.7353515625,2.16015625,0,3.3125,1.6025390625,3.3125,4.69921875Zm-4.8798828125.0361328125c0,2.1611328125.4326171875,3.27734375,1.5126953125,3.27734375,1.044921875,0,1.4765625-1.1162109375,1.4765625-3.2587890625,0-2.1611328125-.431640625-3.1689453125-1.4765625-3.1689453125-1.0263671875,0-1.5126953125.990234375-1.5126953125,3.150390625Z" fill="#fff"/>
      <path d="m768.0341796875,202.7451171875h1.2421875v-2.3583984375h1.8544921875v2.3583984375h1.494140625v1.548828125h-1.494140625v5.4013671875c0,.576171875.1083984375.900390625.7919921875.900390625.2158203125,0,.396484375,0,.55859375-.0361328125v1.38671875c-.3603515625.162109375-.900390625.1796875-1.224609375.1796875-1.3505859375,0-1.98046875-.50390625-1.98046875-2.1064453125v-5.7255859375h-1.2421875v-1.548828125Z" fill="#fff"/>
      <path d="m775.234375,207.822265625c0,1.38671875.1982421875,2.791015625,1.4765625,2.791015625,1.1884765625,0,1.3505859375-1.0625,1.38671875-1.3681640625h1.7998046875c-.03515625.2705078125-.26953125,2.9345703125-3.22265625,2.9345703125-2.8984375,0-3.3125-2.5205078125-3.3125-4.8427734375,0-2.935546875,1.080078125-4.75390625,3.3662109375-4.75390625,2.611328125,0,3.2412109375,2.0166015625,3.2412109375,4.3935546875,0,.26953125-.017578125.666015625-.0361328125.845703125h-4.69921875Zm2.880859375-1.3681640625c0-1.1337890625-.1796875-2.322265625-1.38671875-2.322265625-1.3857421875,0-1.4580078125,1.65625-1.4755859375,2.322265625h2.8623046875Z" fill="#fff"/>
      <path d="m781.48046875,205.8779296875c0-1.494140625,0-2.466796875-.017578125-3.1328125h1.7822265625c.017578125.1806640625.0537109375.5947265625.0537109375,1.56640625.3603515625-1.080078125,1.20703125-1.7099609375,2.4306640625-1.7099609375v2.0703125c-1.5302734375,0-2.3759765625.6298828125-2.3759765625,2.3583984375v4.9697265625h-1.873046875v-6.1220703125Z" fill="#fff"/>
      <path d="m792.298828125,206.65234375v5.34765625h-1.873046875v-12.2080078125h3.546875c2.1611328125,0,3.349609375,1.1708984375,3.349609375,3.27734375,0,1.7822265625-.9365234375,2.556640625-1.6025390625,2.80859375,1.0078125.4326171875,1.421875,1.296875,1.421875,3.0615234375v.4853515625c0,1.296875.0546875,1.9267578125.162109375,2.5751953125h-1.8359375c-.1806640625-.55859375-.1982421875-1.56640625-.1982421875-2.5927734375v-.4326171875c0-1.673828125-.3603515625-2.322265625-1.8369140625-2.322265625h-1.1337890625Zm0-1.548828125h1.2236328125c1.369140625,0,1.890625-.666015625,1.890625-1.9619140625,0-1.0986328125-.521484375-1.783203125-1.7099609375-1.783203125h-1.404296875v3.7451171875Z" fill="#fff"/>
      <path d="m800.4697265625,207.822265625c0,1.38671875.1982421875,2.791015625,1.4765625,2.791015625,1.1884765625,0,1.3505859375-1.0625,1.38671875-1.3681640625h1.7998046875c-.0361328125.2705078125-.26953125,2.9345703125-3.22265625,2.9345703125-2.8984375,0-3.3125-2.5205078125-3.3125-4.8427734375,0-2.935546875,1.080078125-4.75390625,3.3662109375-4.75390625,2.611328125,0,3.2412109375,2.0166015625,3.2412109375,4.3935546875,0,.26953125-.017578125.666015625-.0361328125.845703125h-4.69921875Zm2.880859375-1.3681640625c0-1.1337890625-.1796875-2.322265625-1.38671875-2.322265625-1.3857421875,0-1.4580078125,1.65625-1.4765625,2.322265625h2.86328125Z" fill="#fff"/>
      <path d="m813.0888671875,211.2978515625c0,2.5751953125-.7021484375,4.212890625-3.45703125,4.212890625-2.5390625,0-3.0966796875-1.5478515625-3.1513671875-2.646484375h1.873046875c.0361328125.3603515625.1982421875,1.1162109375,1.3505859375,1.1162109375,1.2958984375,0,1.5478515625-.97265625,1.5478515625-2.6826171875v-.55859375c-.341796875.8291015625-1.080078125,1.20703125-2.0341796875,1.20703125-1.9443359375,0-2.80859375-1.6748046875-2.80859375-4.4658203125,0-3.22265625,1.169921875-4.8974609375,3.0068359375-4.8974609375,1.2236328125,0,1.673828125.5947265625,1.8359375,1.0625,0-.32421875.0546875-.6845703125.072265625-.900390625h1.80078125c-.0185546875.5400390625-.0361328125,1.4765625-.0361328125,2.7548828125v5.7978515625Zm-3.294921875-.9365234375c1.2060546875,0,1.494140625-1.169921875,1.494140625-3.205078125,0-1.8359375-.162109375-2.970703125-1.404296875-2.970703125-1.0078125,0-1.56640625,1.044921875-1.56640625,3.2412109375,0,2.0166015625.5224609375,2.9345703125,1.4765625,2.9345703125Z" fill="#fff"/>
      <path d="m815.0849609375,202.7451171875h1.873046875v9.2548828125h-1.873046875v-9.2548828125Zm.017578125-1.494140625v-2.052734375h1.873046875v2.052734375h-1.873046875Z" fill="#fff"/>
      <path d="m820.1259765625,209.2451171875c.017578125.755859375.3955078125,1.4765625,1.3505859375,1.4765625.8095703125,0,1.1884765625-.4677734375,1.1884765625-1.15234375,0-.755859375-.3603515625-1.134765625-1.4951171875-1.56640625-2.0888671875-.7744140625-2.62890625-1.5126953125-2.62890625-2.8447265625,0-1.2421875.7744140625-2.5751953125,2.880859375-2.5751953125,2.3046875,0,2.8994140625,1.56640625,2.8994140625,2.791015625h-1.80078125c0-.3603515625-.072265625-1.3505859375-1.15234375-1.3505859375-.666015625,0-1.0078125.4140625-1.0078125,1.0087890625,0,.6298828125.3232421875.935546875,1.494140625,1.3681640625,1.908203125.7197265625,2.6650390625,1.4404296875,2.6650390625,2.953125,0,1.7822265625-1.1171875,2.80859375-3.1337890625,2.80859375-2.1064453125,0-3.078125-1.2607421875-3.0966796875-2.9169921875h1.8369140625Z" fill="#fff"/>
      <path d="m825.0390625,202.7451171875h1.2421875v-2.3583984375h1.8544921875v2.3583984375h1.494140625v1.548828125h-1.494140625v5.4013671875c0,.576171875.1083984375.900390625.7919921875.900390625.2158203125,0,.396484375,0,.55859375-.0361328125v1.38671875c-.3603515625.162109375-.900390625.1796875-1.224609375.1796875-1.3505859375,0-1.98046875-.50390625-1.98046875-2.1064453125v-5.7255859375h-1.2421875v-1.548828125Z" fill="#fff"/>
      <path d="m830.798828125,205.8779296875c0-1.494140625,0-2.466796875-.017578125-3.1328125h1.7822265625c.017578125.1806640625.0537109375.5947265625.0537109375,1.56640625.3603515625-1.080078125,1.20703125-1.7099609375,2.4306640625-1.7099609375v2.0703125c-1.5302734375,0-2.3759765625.6298828125-2.3759765625,2.3583984375v4.9697265625h-1.873046875v-6.1220703125Z" fill="#fff"/>
      <path d="m841.8525390625,210.109375c0,.50390625.0537109375,1.5126953125.072265625,1.890625h-1.693359375c-.03515625-.1982421875-.08984375-.6298828125-.08984375-.91796875-.341796875.6298828125-.990234375,1.080078125-2.1240234375,1.080078125-1.7646484375,0-2.44921875-1.404296875-2.44921875-2.71875,0-1.8369140625,1.2607421875-3.025390625,3.6376953125-3.025390625.341796875,0,.59375,0,.828125.0361328125v-1.09765625c0-.5947265625-.1083984375-1.314453125-1.134765625-1.314453125-1.0439453125,0-1.15234375.7021484375-1.2060546875,1.314453125h-1.7646484375c.0361328125-1.3505859375.666015625-2.7734375,3.04296875-2.7734375,1.908203125,0,2.880859375.900390625,2.880859375,2.6474609375v4.87890625Zm-1.783203125-2.287109375c-.2158203125-.03515625-.431640625-.03515625-.7734375-.03515625-1.3505859375,0-1.873046875.6474609375-1.873046875,1.494140625,0,.666015625.32421875,1.3505859375,1.1884765625,1.3505859375,1.1708984375,0,1.4580078125-.8642578125,1.4580078125-2.4306640625v-.37890625Z" fill="#fff"/>
      <path d="m842.822265625,202.7451171875h1.2421875v-2.3583984375h1.8544921875v2.3583984375h1.494140625v1.548828125h-1.494140625v5.4013671875c0,.576171875.1083984375.900390625.7919921875.900390625.2158203125,0,.396484375,0,.55859375-.0361328125v1.38671875c-.3603515625.162109375-.900390625.1796875-1.224609375.1796875-1.3505859375,0-1.98046875-.50390625-1.98046875-2.1064453125v-5.7255859375h-1.2421875v-1.548828125Z" fill="#fff"/>
      <path d="m848.58203125,202.7451171875h1.873046875v9.2548828125h-1.873046875v-9.2548828125Zm.0185546875-1.494140625v-2.052734375h1.8720703125v2.052734375h-1.8720703125Z" fill="#fff"/>
      <path d="m858.7900390625,207.2822265625c0,3.3310546875-1.1884765625,4.8974609375-3.4033203125,4.8974609375-2.2138671875,0-3.3662109375-1.51171875-3.3662109375-4.861328125,0-3.240234375,1.349609375-4.7353515625,3.45703125-4.7353515625,2.16015625,0,3.3125,1.6025390625,3.3125,4.69921875Zm-4.87890625.0361328125c0,2.1611328125.431640625,3.27734375,1.51171875,3.27734375,1.044921875,0,1.4765625-1.1162109375,1.4765625-3.2587890625,0-2.1611328125-.431640625-3.1689453125-1.4765625-3.1689453125-1.0263671875,0-1.51171875.990234375-1.51171875,3.150390625Z" fill="#fff"/>
      <path d="m860.3359375,205.6259765625c0-1.908203125,0-2.4130859375-.017578125-2.880859375h1.7998046875c.0361328125.234375.0546875.6123046875.0546875,1.0439453125.2880859375-.576171875.8818359375-1.2060546875,2.1064453125-1.2060546875,1.4404296875,0,2.376953125.8828125,2.376953125,2.80859375v6.6083984375h-1.873046875v-6.193359375c0-.9912109375-.251953125-1.62109375-1.169921875-1.62109375-.97265625,0-1.404296875.576171875-1.404296875,2.1611328125v5.6533203125h-1.873046875v-6.3740234375Z" fill="#fff"/>
      <path d="m781.0390625,219.7919921875h3.0068359375c3.04296875,0,4.267578125,1.9990234375,4.267578125,5.833984375,0,4.123046875-1.15234375,6.3740234375-4.4296875,6.3740234375h-2.8447265625v-12.2080078125Zm1.9091796875,10.6416015625h.8994140625c1.873046875,0,2.5029296875-1.458984375,2.5029296875-4.7890625,0-2.953125-.6298828125-4.25-2.484375-4.25h-.91796875v9.0390625Z" fill="#fff"/>
      <path d="m795.7294921875,230.109375c0,.50390625.0537109375,1.5126953125.072265625,1.890625h-1.693359375c-.03515625-.1982421875-.08984375-.6298828125-.08984375-.91796875-.341796875.6298828125-.990234375,1.080078125-2.1240234375,1.080078125-1.7646484375,0-2.44921875-1.404296875-2.44921875-2.71875,0-1.8369140625,1.2607421875-3.025390625,3.6376953125-3.025390625.341796875,0,.59375,0,.828125.0361328125v-1.09765625c0-.5947265625-.1083984375-1.314453125-1.134765625-1.314453125-1.0439453125,0-1.15234375.7021484375-1.2060546875,1.314453125h-1.7646484375c.0361328125-1.3505859375.666015625-2.7734375,3.04296875-2.7734375,1.908203125,0,2.880859375.900390625,2.880859375,2.6474609375v4.87890625Zm-1.783203125-2.287109375c-.2158203125-.03515625-.431640625-.03515625-.7734375-.03515625-1.3505859375,0-1.873046875.6474609375-1.873046875,1.494140625,0,.666015625.32421875,1.3505859375,1.1884765625,1.3505859375,1.1708984375,0,1.4580078125-.8642578125,1.4580078125-2.4306640625v-.37890625Z" fill="#fff"/>
      <path d="m796.69921875,222.7451171875h1.2421875v-2.3583984375h1.8544921875v2.3583984375h1.494140625v1.548828125h-1.494140625v5.4013671875c0,.576171875.1083984375.900390625.7919921875.900390625.2158203125,0,.396484375,0,.55859375-.0361328125v1.38671875c-.3603515625.162109375-.900390625.1796875-1.224609375.1796875-1.3505859375,0-1.98046875-.50390625-1.98046875-2.1064453125v-5.7255859375h-1.2421875v-1.548828125Z" fill="#fff"/>
      <path d="m808.3466796875,230.109375c0,.50390625.0537109375,1.5126953125.072265625,1.890625h-1.693359375c-.03515625-.1982421875-.08984375-.6298828125-.08984375-.91796875-.341796875.6298828125-.990234375,1.080078125-2.1240234375,1.080078125-1.7646484375,0-2.44921875-1.404296875-2.44921875-2.71875,0-1.8369140625,1.2607421875-3.025390625,3.6376953125-3.025390625.341796875,0,.59375,0,.828125.0361328125v-1.09765625c0-.5947265625-.1083984375-1.314453125-1.134765625-1.314453125-1.0439453125,0-1.15234375.7021484375-1.2060546875,1.314453125h-1.7646484375c.0361328125-1.3505859375.666015625-2.7734375,3.04296875-2.7734375,1.908203125,0,2.880859375.900390625,2.880859375,2.6474609375v4.87890625Zm-1.783203125-2.287109375c-.2158203125-.03515625-.431640625-.03515625-.7734375-.03515625-1.3505859375,0-1.873046875.6474609375-1.873046875,1.494140625,0,.666015625.32421875,1.3505859375,1.1884765625,1.3505859375,1.1708984375,0,1.4580078125-.8642578125,1.4580078125-2.4306640625v-.37890625Z" fill="#fff"/>
      <path d="m810.3779296875,219.1982421875h1.85546875v4.5732421875c.3056640625-.6298828125.935546875-1.1884765625,2.1064453125-1.1884765625,1.8544921875,0,2.7001953125,1.6025390625,2.7001953125,4.5556640625,0,2.8984375-.73828125,5.0234375-2.970703125,5.0234375-1.2060546875,0-1.638671875-.59375-1.908203125-1.1162109375,0,.2333984375-.0185546875.6484375-.0361328125.9541015625h-1.7646484375c.017578125-.576171875.017578125-1.583984375.017578125-2.5751953125v-10.2265625Zm3.349609375,4.9873046875c-1.1708984375,0-1.548828125.9365234375-1.548828125,3.22265625,0,2.1787109375.32421875,3.1513671875,1.458984375,3.1513671875,1.080078125,0,1.5302734375-1.0439453125,1.5302734375-3.4033203125,0-1.9619140625-.3603515625-2.970703125-1.4404296875-2.970703125Z" fill="#fff"/>
      <path d="m824.40234375,230.109375c0,.50390625.0537109375,1.5126953125.072265625,1.890625h-1.693359375c-.03515625-.1982421875-.08984375-.6298828125-.08984375-.91796875-.341796875.6298828125-.990234375,1.080078125-2.1240234375,1.080078125-1.7646484375,0-2.44921875-1.404296875-2.44921875-2.71875,0-1.8369140625,1.2607421875-3.025390625,3.63671875-3.025390625.3427734375,0,.5947265625,0,.8291015625.0361328125v-1.09765625c0-.5947265625-.1083984375-1.314453125-1.134765625-1.314453125-1.0439453125,0-1.15234375.7021484375-1.2060546875,1.314453125h-1.7646484375c.0361328125-1.3505859375.666015625-2.7734375,3.04296875-2.7734375,1.908203125,0,2.880859375.900390625,2.880859375,2.6474609375v4.87890625Zm-1.7822265625-2.287109375c-.216796875-.03515625-.4326171875-.03515625-.7744140625-.03515625-1.3505859375,0-1.873046875.6474609375-1.873046875,1.494140625,0,.666015625.32421875,1.3505859375,1.1884765625,1.3505859375,1.169921875,0,1.458984375-.8642578125,1.458984375-2.4306640625v-.37890625Z" fill="#fff"/>
      <path d="m827.55078125,229.2451171875c.017578125.755859375.3955078125,1.4765625,1.3505859375,1.4765625.8095703125,0,1.1875-.4677734375,1.1875-1.15234375,0-.755859375-.359375-1.134765625-1.494140625-1.56640625-2.0888671875-.7744140625-2.62890625-1.5126953125-2.62890625-2.8447265625,0-1.2421875.7744140625-2.5751953125,2.880859375-2.5751953125,2.3046875,0,2.8994140625,1.56640625,2.8994140625,2.791015625h-1.80078125c0-.3603515625-.072265625-1.3505859375-1.15234375-1.3505859375-.666015625,0-1.0087890625.4140625-1.0087890625,1.0087890625,0,.6298828125.32421875.935546875,1.4951171875,1.3681640625,1.908203125.7197265625,2.6650390625,1.4404296875,2.6650390625,2.953125,0,1.7822265625-1.1171875,2.80859375-3.1337890625,2.80859375-2.1064453125,0-3.078125-1.2607421875-3.0966796875-2.9169921875h1.8369140625Z" fill="#fff"/>
      <path d="m834.8232421875,227.822265625c0,1.38671875.1982421875,2.791015625,1.4765625,2.791015625,1.1884765625,0,1.3505859375-1.0625,1.38671875-1.3681640625h1.7998046875c-.0361328125.2705078125-.26953125,2.9345703125-3.22265625,2.9345703125-2.8984375,0-3.3125-2.5205078125-3.3125-4.8427734375,0-2.935546875,1.080078125-4.75390625,3.3662109375-4.75390625,2.611328125,0,3.2412109375,2.0166015625,3.2412109375,4.3935546875,0,.26953125-.017578125.666015625-.0361328125.845703125h-4.69921875Zm2.880859375-1.3681640625c0-1.1337890625-.1796875-2.322265625-1.38671875-2.322265625-1.3857421875,0-1.4580078125,1.65625-1.4765625,2.322265625h2.86328125Z" fill="#fff"/>
    </g>
    <g>
      <path d="m559.9208984375,212l-3.025390625-12.2080078125h2.03515625l1.1884765625,5.40234375c.3779296875,1.6376953125.755859375,3.564453125.900390625,4.806640625h.03515625c.162109375-1.1875.6484375-3.150390625,1.0263671875-4.7890625l1.1708984375-5.419921875h1.98046875l-3.0966796875,12.2080078125h-2.21484375Z" fill="#fff"/>
      <path d="m566.3994140625,199.7919921875h3.4931640625c1.98046875,0,3.4208984375,1.20703125,3.4208984375,3.5654296875,0,2.287109375-1.314453125,3.5654296875-3.6005859375,3.5654296875h-1.4228515625v5.0771484375h-1.890625v-12.2080078125Zm1.890625,5.599609375h1.2060546875c1.296875,0,1.9091796875-.666015625,1.9091796875-2.0703125,0-1.2607421875-.6484375-1.962890625-1.783203125-1.962890625h-1.33203125v4.033203125Z" fill="#fff"/>
      <path d="m574.7880859375,212v-12.2080078125h2.1962890625c2.8095703125,7.328125,3.2958984375,8.5712890625,3.439453125,9.1474609375h.017578125c-.08984375-1.53125-.107421875-3.3310546875-.107421875-5.330078125v-3.8173828125h1.7099609375v12.2080078125h-2.1064453125c-2.8984375-7.7607421875-3.3671875-9.0029296875-3.5107421875-9.54296875h-.0185546875c.0908203125,1.5126953125.0908203125,3.384765625.0908203125,5.58203125v3.9609375h-1.7109375Z" fill="#fff"/>
      <path d="m551.2001953125,228.6513671875c.1083984375,1.09765625.576171875,2.0341796875,1.7646484375,2.0341796875,1.15234375,0,1.638671875-.6845703125,1.638671875-1.7646484375,0-1.0986328125-.5048828125-1.7099609375-2.0888671875-2.484375-2.0341796875-.9541015625-2.86328125-1.818359375-2.86328125-3.619140625,0-1.8544921875,1.20703125-3.205078125,3.3310546875-3.205078125,2.611328125,0,3.27734375,1.80078125,3.3134765625,3.3310546875h-1.8544921875c-.072265625-.6484375-.251953125-1.818359375-1.4951171875-1.818359375-.9716796875,0-1.404296875.6484375-1.404296875,1.5302734375,0,.97265625.4326171875,1.4404296875,1.9091796875,2.125,2.16015625,1.0078125,3.078125,1.998046875,3.078125,3.978515625,0,1.9091796875-1.15234375,3.439453125-3.6181640625,3.439453125-2.68359375,0-3.51171875-1.728515625-3.6015625-3.546875h1.890625Z" fill="#fff"/>
      <path d="m559.6064453125,227.822265625c0,1.38671875.1982421875,2.791015625,1.4765625,2.791015625,1.1884765625,0,1.3505859375-1.0625,1.38671875-1.3681640625h1.7998046875c-.03515625.2705078125-.26953125,2.9345703125-3.22265625,2.9345703125-2.8984375,0-3.3125-2.5205078125-3.3125-4.8427734375,0-2.935546875,1.080078125-4.75390625,3.3662109375-4.75390625,2.611328125,0,3.2412109375,2.0166015625,3.2412109375,4.3935546875,0,.26953125-.017578125.666015625-.0361328125.845703125h-4.69921875Zm2.880859375-1.3681640625c0-1.1337890625-.1796875-2.322265625-1.38671875-2.322265625-1.3857421875,0-1.4580078125,1.65625-1.4755859375,2.322265625h2.8623046875Z" fill="#fff"/>
      <path d="m565.8515625,225.8779296875c0-1.494140625,0-2.466796875-.017578125-3.1328125h1.7822265625c.017578125.1806640625.0537109375.5947265625.0537109375,1.56640625.3603515625-1.080078125,1.20703125-1.7099609375,2.4306640625-1.7099609375v2.0703125c-1.5302734375,0-2.3759765625.6298828125-2.3759765625,2.3583984375v4.9697265625h-1.873046875v-6.1220703125Z" fill="#fff"/>
      <path d="m572.853515625,222.7451171875c.630859375,2.7548828125,1.3505859375,5.8701171875,1.548828125,7.2744140625h.017578125c.162109375-1.296875,1.134765625-4.8798828125,1.65625-7.2744140625h1.873046875l-2.6103515625,9.2548828125h-2.0166015625l-2.466796875-9.2548828125h1.998046875Z" fill="#fff"/>
      <path d="m580.4130859375,227.822265625c0,1.38671875.1982421875,2.791015625,1.4765625,2.791015625,1.1884765625,0,1.3505859375-1.0625,1.38671875-1.3681640625h1.7998046875c-.03515625.2705078125-.26953125,2.9345703125-3.22265625,2.9345703125-2.8984375,0-3.3125-2.5205078125-3.3125-4.8427734375,0-2.935546875,1.080078125-4.75390625,3.3662109375-4.75390625,2.611328125,0,3.2412109375,2.0166015625,3.2412109375,4.3935546875,0,.26953125-.017578125.666015625-.0361328125.845703125h-4.69921875Zm2.880859375-1.3681640625c0-1.1337890625-.1796875-2.322265625-1.38671875-2.322265625-1.3857421875,0-1.4580078125,1.65625-1.4755859375,2.322265625h2.8623046875Z" fill="#fff"/>
      <path d="m586.658203125,225.8779296875c0-1.494140625,0-2.466796875-.017578125-3.1328125h1.7822265625c.017578125.1806640625.0537109375.5947265625.0537109375,1.56640625.3603515625-1.080078125,1.20703125-1.7099609375,2.4306640625-1.7099609375v2.0703125c-1.5302734375,0-2.3759765625.6298828125-2.3759765625,2.3583984375v4.9697265625h-1.873046875v-6.1220703125Z" fill="#fff"/>
    </g>
    <g>
      <path d="m83.37890625,206.4365234375h-3.9609375v3.9248046875h4.427734375l-.232421875,1.638671875h-6.068359375v-12.2080078125h6.03125v1.6748046875h-4.158203125v3.3134765625h3.9609375v1.65625Z" fill="#fff"/>
      <path d="m92.6484375,207.228515625c0-2.142578125.037109375-4.4833984375.072265625-5.833984375h-.0546875c-.431640625,2.2333984375-1.2421875,6.6806640625-2.10546875,10.60546875h-1.728515625c-.6484375-3.5654296875-1.513671875-8.318359375-1.908203125-10.6416015625h-.072265625c.072265625,1.4228515625.125,4.033203125.125,6.1220703125v4.51953125h-1.74609375v-12.2080078125h2.826171875c.7578125,3.529296875,1.458984375,7.3642578125,1.728515625,9.0927734375h.01953125c.232421875-1.5478515625,1.1328125-5.70703125,1.890625-9.0927734375h2.771484375v12.2080078125h-1.818359375v-4.771484375Z" fill="#fff"/>
      <path d="m97.705078125,208.6513671875c.109375,1.09765625.576171875,2.0341796875,1.765625,2.0341796875,1.15234375,0,1.638671875-.6845703125,1.638671875-1.7646484375,0-1.0986328125-.505859375-1.7099609375-2.08984375-2.484375-2.03515625-.9541015625-2.86328125-1.818359375-2.86328125-3.619140625,0-1.8544921875,1.20703125-3.205078125,3.33203125-3.205078125,2.611328125,0,3.27734375,1.80078125,3.3125,3.3310546875h-1.853515625c-.072265625-.6484375-.251953125-1.818359375-1.49609375-1.818359375-.970703125,0-1.404296875.6484375-1.404296875,1.5302734375,0,.97265625.43359375,1.4404296875,1.91015625,2.125,2.16015625,1.0078125,3.078125,1.998046875,3.078125,3.978515625,0,1.9091796875-1.15234375,3.439453125-3.619140625,3.439453125-2.68359375,0-3.51171875-1.728515625-3.6015625-3.546875h1.890625Z" fill="#fff"/>
      <path d="m53.759765625,232l-2.341796875-12.2080078125h2.017578125c.576171875,3.3857421875,1.22265625,7.490234375,1.384765625,9.5615234375h.01953125c.32421875-2.125,1.33203125-6.806640625,1.8359375-9.5615234375h1.728515625c.486328125,2.5390625,1.494140625,7.400390625,1.763671875,9.4716796875h.037109375c.26953125-2.4130859375,1.15234375-6.986328125,1.529296875-9.4716796875h1.890625l-2.537109375,12.2080078125h-1.91015625c-.486328125-2.62890625-1.404296875-6.9501953125-1.708984375-9.12890625h-.01953125c-.32421875,2.2509765625-1.27734375,6.64453125-1.78125,9.12890625h-1.908203125Z" fill="#fff"/>
      <path d="m70.607421875,227.2822265625c0,3.3310546875-1.1875,4.8974609375-3.40234375,4.8974609375s-3.3671875-1.51171875-3.3671875-4.861328125c0-3.240234375,1.349609375-4.7353515625,3.45703125-4.7353515625,2.16015625,0,3.3125,1.6025390625,3.3125,4.69921875Zm-4.87890625.0361328125c0,2.1611328125.431640625,3.27734375,1.51171875,3.27734375,1.044921875,0,1.4765625-1.1162109375,1.4765625-3.2587890625,0-2.1611328125-.431640625-3.1689453125-1.4765625-3.1689453125-1.025390625,0-1.51171875.990234375-1.51171875,3.150390625Z" fill="#fff"/>
      <path d="m72.154296875,225.8779296875c0-1.494140625,0-2.466796875-.017578125-3.1328125h1.78125c.017578125.1806640625.0546875.5947265625.0546875,1.56640625.359375-1.080078125,1.20703125-1.7099609375,2.4296875-1.7099609375v2.0703125c-1.529296875,0-2.375.6298828125-2.375,2.3583984375v4.9697265625h-1.873046875v-6.1220703125Z" fill="#fff"/>
      <path d="m79.462890625,226.83203125c.62890625-1.080078125,1.728515625-2.7900390625,2.501953125-4.0869140625h2.0703125c-.7734375,1.1708984375-1.548828125,2.2685546875-2.359375,3.439453125l2.5390625,5.8154296875h-2.125l-1.673828125-4.3212890625c-.251953125.341796875-.701171875,1.0263671875-.953125,1.3505859375v2.970703125h-1.873046875v-12.8017578125h1.873046875v7.6337890625Z" fill="#fff"/>
      <path d="m86.46484375,229.2451171875c.017578125.755859375.39453125,1.4765625,1.349609375,1.4765625.810546875,0,1.1875-.4677734375,1.1875-1.15234375,0-.755859375-.359375-1.134765625-1.494140625-1.56640625-2.087890625-.7744140625-2.62890625-1.5126953125-2.62890625-2.8447265625,0-1.2421875.775390625-2.5751953125,2.880859375-2.5751953125,2.3046875,0,2.900390625,1.56640625,2.900390625,2.791015625h-1.80078125c0-.3603515625-.072265625-1.3505859375-1.15234375-1.3505859375-.666015625,0-1.009765625.4140625-1.009765625,1.0087890625,0,.6298828125.32421875.935546875,1.49609375,1.3681640625,1.908203125.7197265625,2.6640625,1.4404296875,2.6640625,2.953125,0,1.7822265625-1.1171875,2.80859375-3.1328125,2.80859375-2.107421875,0-3.078125-1.2607421875-3.09765625-2.9169921875h1.837890625Z" fill="#fff"/>
      <path d="m91.376953125,222.7451171875h1.2421875v-2.3583984375h1.85546875v2.3583984375h1.494140625v1.548828125h-1.494140625v5.4013671875c0,.576171875.107421875.900390625.791015625.900390625.216796875,0,.396484375,0,.55859375-.0361328125v1.38671875c-.359375.162109375-.900390625.1796875-1.224609375.1796875-1.349609375,0-1.98046875-.50390625-1.98046875-2.1064453125v-5.7255859375h-1.2421875v-1.548828125Z" fill="#fff"/>
      <path d="m103.025390625,230.109375c0,.50390625.052734375,1.5126953125.072265625,1.890625h-1.693359375c-.03515625-.1982421875-.08984375-.6298828125-.08984375-.91796875-.341796875.6298828125-.990234375,1.080078125-2.125,1.080078125-1.763671875,0-2.44921875-1.404296875-2.44921875-2.71875,0-1.8369140625,1.26171875-3.025390625,3.63671875-3.025390625.34375,0,.595703125,0,.830078125.0361328125v-1.09765625c0-.5947265625-.109375-1.314453125-1.134765625-1.314453125-1.044921875,0-1.15234375.7021484375-1.20703125,1.314453125h-1.763671875c.03515625-1.3505859375.666015625-2.7734375,3.04296875-2.7734375,1.908203125,0,2.880859375.900390625,2.880859375,2.6474609375v4.87890625Zm-1.783203125-2.287109375c-.216796875-.03515625-.431640625-.03515625-.7734375-.03515625-1.3515625,0-1.873046875.6474609375-1.873046875,1.494140625,0,.666015625.32421875,1.3505859375,1.1875,1.3505859375,1.169921875,0,1.458984375-.8642578125,1.458984375-2.4306640625v-.37890625Z" fill="#fff"/>
      <path d="m103.994140625,222.7451171875h1.2421875v-2.3583984375h1.85546875v2.3583984375h1.494140625v1.548828125h-1.494140625v5.4013671875c0,.576171875.107421875.900390625.791015625.900390625.216796875,0,.396484375,0,.55859375-.0361328125v1.38671875c-.359375.162109375-.900390625.1796875-1.224609375.1796875-1.349609375,0-1.98046875-.50390625-1.98046875-2.1064453125v-5.7255859375h-1.2421875v-1.548828125Z" fill="#fff"/>
      <path d="m109.75390625,222.7451171875h1.873046875v9.2548828125h-1.873046875v-9.2548828125Zm.017578125-1.494140625v-2.052734375h1.873046875v2.052734375h-1.873046875Z" fill="#fff"/>
      <path d="m119.962890625,227.2822265625c0,3.3310546875-1.189453125,4.8974609375-3.404296875,4.8974609375-2.212890625,0-3.365234375-1.51171875-3.365234375-4.861328125,0-3.240234375,1.349609375-4.7353515625,3.45703125-4.7353515625,2.16015625,0,3.3125,1.6025390625,3.3125,4.69921875Zm-4.880859375.0361328125c0,2.1611328125.43359375,3.27734375,1.513671875,3.27734375,1.044921875,0,1.4765625-1.1162109375,1.4765625-3.2587890625,0-2.1611328125-.431640625-3.1689453125-1.4765625-3.1689453125-1.02734375,0-1.513671875.990234375-1.513671875,3.150390625Z" fill="#fff"/>
      <path d="m121.5078125,225.6259765625c0-1.908203125,0-2.4130859375-.017578125-2.880859375h1.80078125c.03515625.234375.0546875.6123046875.0546875,1.0439453125.287109375-.576171875.880859375-1.2060546875,2.10546875-1.2060546875,1.44140625,0,2.376953125.8828125,2.376953125,2.80859375v6.6083984375h-1.873046875v-6.193359375c0-.9912109375-.251953125-1.62109375-1.169921875-1.62109375-.97265625,0-1.404296875.576171875-1.404296875,2.1611328125v5.6533203125h-1.873046875v-6.3740234375Z" fill="#fff"/>
    </g>
    <g>
      <path d="m304.19140625,206.4365234375h-3.9609375v3.9248046875h4.427734375l-.232421875,1.638671875h-6.068359375v-12.2080078125h6.03125v1.6748046875h-4.158203125v3.3134765625h3.9609375v1.65625Z" fill="#fff"/>
      <path d="m305.880859375,205.6259765625c0-1.908203125,0-2.4130859375-.017578125-2.880859375h1.80078125c.03515625.234375.0546875.6123046875.0546875,1.0439453125.287109375-.576171875.880859375-1.2060546875,2.10546875-1.2060546875,1.44140625,0,2.376953125.8828125,2.376953125,2.80859375v6.6083984375h-1.873046875v-6.193359375c0-.9912109375-.251953125-1.62109375-1.169921875-1.62109375-.97265625,0-1.404296875.576171875-1.404296875,2.1611328125v5.6533203125h-1.873046875v-6.3740234375Z" fill="#fff"/>
      <path d="m320.138671875,208.974609375c-.03515625.6484375-.21484375,3.1875-3.150390625,3.1875-2.57421875,0-3.240234375-2.125-3.240234375-4.861328125,0-2.5029296875.828125-4.7177734375,3.34765625-4.7177734375,2.91796875,0,3.025390625,2.5751953125,3.04296875,3.0791015625h-1.890625c-.017578125-.3603515625-.08984375-1.5302734375-1.169921875-1.5302734375-1.0625,0-1.439453125,1.1884765625-1.439453125,3.1865234375,0,2.0888671875.376953125,3.27734375,1.404296875,3.27734375,1.115234375,0,1.22265625-1.1162109375,1.27734375-1.62109375h1.818359375Z" fill="#fff"/>
      <path d="m321.5234375,205.8779296875c0-1.494140625,0-2.466796875-.017578125-3.1328125h1.78125c.017578125.1806640625.0546875.5947265625.0546875,1.56640625.359375-1.080078125,1.20703125-1.7099609375,2.4296875-1.7099609375v2.0703125c-1.529296875,0-2.375.6298828125-2.375,2.3583984375v4.9697265625h-1.873046875v-6.1220703125Z" fill="#fff"/>
      <path d="m328.578125,202.7451171875c.79296875,3.27734375,1.4765625,5.8876953125,1.5859375,6.9677734375h.017578125c.21484375-1.2421875.900390625-4.1044921875,1.6015625-6.9677734375h1.890625l-2.681640625,9.6865234375c-.775390625,2.8271484375-1.693359375,3.0615234375-2.990234375,3.0615234375-.234375,0-.556640625-.0185546875-.7734375-.072265625v-1.583984375c.125.017578125.431640625.0361328125.6484375.0361328125.86328125,0,1.134765625-.486328125,1.421875-1.728515625l-2.75390625-9.3994140625h2.033203125Z" fill="#fff"/>
      <path d="m334.697265625,215.3671875v-9.939453125c0-1.259765625,0-2.1064453125-.017578125-2.6826171875h1.80078125c.03515625.1982421875.0546875.7021484375.0546875,1.0986328125.3046875-.666015625.880859375-1.2607421875,2.123046875-1.2607421875,1.728515625,0,2.701171875,1.5126953125,2.701171875,4.6455078125,0,3.5107421875-1.1875,4.951171875-2.970703125,4.951171875-1.0078125,0-1.548828125-.4501953125-1.818359375-.9716796875v4.1591796875h-1.873046875Zm3.27734375-11.181640625c-1.1875,0-1.4765625,1.134765625-1.4765625,3.0791015625,0,2.142578125.14453125,3.3125,1.44140625,3.3125,1.025390625,0,1.529296875-1.15234375,1.529296875-3.2587890625,0-2.25-.486328125-3.1328125-1.494140625-3.1328125Z" fill="#fff"/>
      <path d="m341.951171875,202.7451171875h1.2421875v-2.3583984375h1.85546875v2.3583984375h1.494140625v1.548828125h-1.494140625v5.4013671875c0,.576171875.107421875.900390625.791015625.900390625.216796875,0,.396484375,0,.55859375-.0361328125v1.38671875c-.359375.162109375-.900390625.1796875-1.224609375.1796875-1.349609375,0-1.98046875-.50390625-1.98046875-2.1064453125v-5.7255859375h-1.2421875v-1.548828125Z" fill="#fff"/>
      <path d="m349.15234375,207.822265625c0,1.38671875.197265625,2.791015625,1.4765625,2.791015625,1.1875,0,1.349609375-1.0625,1.38671875-1.3681640625h1.798828125c-.03515625.2705078125-.26953125,2.9345703125-3.22265625,2.9345703125-2.8984375,0-3.3125-2.5205078125-3.3125-4.8427734375,0-2.935546875,1.080078125-4.75390625,3.3671875-4.75390625,2.611328125,0,3.240234375,2.0166015625,3.240234375,4.3935546875,0,.26953125-.017578125.666015625-.03515625.845703125h-4.69921875Zm2.880859375-1.3681640625c0-1.1337890625-.1796875-2.322265625-1.38671875-2.322265625-1.38671875,0-1.458984375,1.65625-1.4765625,2.322265625h2.86328125Z" fill="#fff"/>
      <path d="m361.771484375,199.1982421875v10.298828125c0,1.0263671875,0,1.962890625.017578125,2.5029296875h-1.80078125c-.017578125-.234375-.052734375-.755859375-.052734375-1.080078125-.271484375.7197265625-.84765625,1.2421875-2.107421875,1.2421875-1.92578125,0-2.71875-1.7109375-2.71875-4.8798828125,0-2.8623046875.97265625-4.69921875,3.060546875-4.69921875,1.0625,0,1.548828125.4140625,1.728515625.810546875v-4.1953125h1.873046875Zm-3.330078125,11.361328125c1.22265625,0,1.51171875-.97265625,1.51171875-3.3134765625,0-2.322265625-.234375-3.060546875-1.404296875-3.060546875-.955078125,0-1.548828125.7744140625-1.548828125,3.1328125,0,2.3232421875.46875,3.2412109375,1.44140625,3.2412109375Z" fill="#fff"/>
      <path d="m311.60546875,221.466796875h-2.6484375v-1.6748046875h7.185546875v1.6748046875h-2.646484375v10.533203125h-1.890625v-10.533203125Z" fill="#fff"/>
      <path d="m322.171875,229.3349609375c0,1.296875,0,2.197265625.017578125,2.6650390625h-1.78125c-.0546875-.2705078125-.072265625-.6845703125-.08984375-1.080078125-.37890625.8642578125-1.080078125,1.2421875-2.107421875,1.2421875-1.224609375,0-2.3046875-.576171875-2.3046875-2.7724609375v-6.64453125h1.873046875v6.2119140625c0,1.0087890625.234375,1.6025390625,1.09765625,1.6025390625.8828125,0,1.421875-.50390625,1.421875-2.1611328125v-5.6533203125h1.873046875v6.58984375Z" fill="#fff"/>
      <path d="m323.953125,225.6259765625c0-1.908203125,0-2.4130859375-.017578125-2.880859375h1.798828125c.037109375.234375.0546875.6123046875.0546875,1.0439453125.2890625-.576171875.8828125-1.2060546875,2.107421875-1.2060546875,1.439453125,0,2.376953125.8828125,2.376953125,2.80859375v6.6083984375h-1.873046875v-6.193359375c0-.9912109375-.251953125-1.62109375-1.169921875-1.62109375-.97265625,0-1.404296875.576171875-1.404296875,2.1611328125v5.6533203125h-1.873046875v-6.3740234375Z" fill="#fff"/>
      <path d="m332.25,225.6259765625c0-1.908203125,0-2.4130859375-.017578125-2.880859375h1.80078125c.03515625.234375.0546875.6123046875.0546875,1.0439453125.287109375-.576171875.880859375-1.2060546875,2.10546875-1.2060546875,1.44140625,0,2.376953125.8828125,2.376953125,2.80859375v6.6083984375h-1.873046875v-6.193359375c0-.9912109375-.251953125-1.62109375-1.169921875-1.62109375-.97265625,0-1.404296875.576171875-1.404296875,2.1611328125v5.6533203125h-1.873046875v-6.3740234375Z" fill="#fff"/>
      <path d="m341.98828125,227.822265625c0,1.38671875.19921875,2.791015625,1.4765625,2.791015625,1.189453125,0,1.3515625-1.0625,1.38671875-1.3681640625h1.80078125c-.03515625.2705078125-.26953125,2.9345703125-3.22265625,2.9345703125-2.8984375,0-3.3125-2.5205078125-3.3125-4.8427734375,0-2.935546875,1.080078125-4.75390625,3.365234375-4.75390625,2.611328125,0,3.2421875,2.0166015625,3.2421875,4.3935546875,0,.26953125-.017578125.666015625-.037109375.845703125h-4.69921875Zm2.880859375-1.3681640625c0-1.1337890625-.1796875-2.322265625-1.38671875-2.322265625-1.384765625,0-1.45703125,1.65625-1.474609375,2.322265625h2.861328125Z" fill="#fff"/>
      <path d="m348.234375,232v-12.8017578125h1.873046875v12.8017578125h-1.873046875Z" fill="#fff"/>
    </g>
  </g>
</svg>